<svg xmlns="http://www.w3.org/2000/svg" width="448" height="420" viewBox="0 0 448 420" fill="none">
<path fill-rule="evenodd" clip-rule="evenodd" d="M304.762 0V12.4486C304.762 35.1038 304.777 53.9834 305.196 69.7854L412.461 36.259V48.5286H403.441C412.461 48.5286 412.461 48.5294 412.461 48.5294V165.247H403.441C402.545 165.247 401.654 165.248 400.77 165.248C375.541 165.25 355.487 165.252 340.106 163.043C323.932 160.719 311.033 155.715 302.202 144.058C293.785 132.947 290.25 117.236 288.508 96.7351C288.431 95.827 288.357 94.9058 288.286 93.9715L209.328 118.65L209.323 118.652L209.313 118.655C209.306 118.658 209.295 118.661 209.281 118.666C209.219 118.687 209.097 118.728 208.925 118.792C208.577 118.919 208.035 119.13 207.364 119.429C205.997 120.038 204.23 120.954 202.521 122.186C198.976 124.744 196.889 127.694 196.89 131.328C196.892 135.245 199.279 138.972 203.155 142.328C204.983 143.911 206.852 145.148 208.28 145.99C208.984 146.406 209.555 146.71 209.926 146.9C209.998 146.937 210.063 146.969 210.119 146.997C210.206 147.041 210.272 147.073 210.316 147.094C210.342 147.107 210.36 147.115 210.37 147.12L210.373 147.121L210.378 147.124L210.379 147.124L210.834 147.329L211.295 147.609L206.625 155.325C211.295 147.609 211.296 147.609 211.296 147.61L211.3 147.612L215.729 150.293C218.555 152.004 222.601 154.454 227.478 157.409C237.232 163.317 250.313 171.245 263.62 179.319C290.109 195.393 317.822 212.245 321.585 214.691C322.057 214.998 322.804 215.451 323.778 216.042C328.932 219.166 340.429 226.136 351.03 235.623C363.456 246.743 376.969 263.276 376.969 283.951C376.969 301.92 366.895 317.94 355.688 329.954C344.35 342.108 330.608 351.519 320.551 356.315C310.946 360.895 269.14 375.91 230.625 389.499C211.173 396.362 192.289 402.955 178.271 407.831C171.261 410.269 165.466 412.279 161.423 413.679C159.402 414.379 157.818 414.927 156.74 415.299L155.114 415.861L155.094 415.868L155.089 415.87C155.088 415.87 155.087 415.871 152.144 407.344L155.087 415.871L143.124 420V407.344C143.124 402.48 143.129 397.792 143.133 393.273L143.133 393.251C143.15 376.08 143.165 361.35 142.913 348.653L35.4716 383.906V255.628H44.4916C72.161 255.628 93.6497 255.767 109.833 258.336C126.271 260.947 139.045 266.327 147.533 278.227C155.416 289.279 158.514 304.568 159.936 324.082L241.444 297.338C248.198 294.267 251.513 288.927 251.92 284.12C252.305 279.568 250.218 273.712 242.238 269.15L117.917 204.837C117.851 204.809 117.78 204.779 117.704 204.747C117.3 204.576 116.75 204.333 116.073 204.015C114.72 203.38 112.855 202.439 110.648 201.155C106.248 198.594 100.406 194.62 94.549 188.914C82.7194 177.389 70.9335 158.853 70.8301 131.366C70.7259 103.685 82.9791 85.7592 95.389 74.9446C101.507 69.613 107.609 66.0421 112.192 63.7947C114.492 62.6667 116.436 61.8593 117.844 61.3216C118.549 61.0525 119.123 60.8499 119.543 60.7078C119.753 60.6367 119.925 60.5806 120.056 60.5388C120.101 60.5244 120.142 60.5117 120.177 60.5007L120.184 60.4985L304.762 0ZM160.818 342.779C161.212 357.062 161.194 373.812 161.174 393.325L161.172 394.673C164.382 393.56 168.145 392.253 172.344 390.792C186.347 385.922 205.204 379.338 224.622 372.487C263.847 358.647 304.304 344.076 312.786 340.031C320.818 336.202 332.715 328.134 342.496 317.649C352.407 307.024 358.929 295.245 358.929 283.951C358.929 271.247 350.41 259.277 339 249.066C329.875 240.9 320.394 235.118 314.882 231.757C313.61 230.981 312.549 230.334 311.753 229.817C308.3 227.572 280.99 210.96 254.262 194.742C240.96 186.671 227.883 178.746 218.131 172.838C213.255 169.885 209.211 167.435 206.385 165.725C204.973 164.869 203.865 164.199 203.11 163.742L202.339 163.275C202.164 163.19 201.954 163.085 201.712 162.962C201.058 162.627 200.165 162.148 199.111 161.526C197.023 160.294 194.205 158.442 191.346 155.966C185.846 151.204 178.856 142.934 178.85 131.336C178.845 119.457 186.135 111.763 191.968 107.555C194.949 105.405 197.872 103.908 200.022 102.95C201.11 102.466 202.034 102.104 202.713 101.855C203.053 101.73 203.334 101.633 203.547 101.561C203.653 101.526 203.743 101.497 203.814 101.474C203.849 101.462 203.88 101.452 203.907 101.444L203.934 101.436L203.965 101.426L287.317 75.3737C286.834 61.0375 286.743 44.3169 286.726 24.896L125.621 77.7007L125.544 77.7239L125.534 77.7271C125.501 77.7375 125.43 77.7604 125.324 77.7964C125.11 77.8686 124.755 77.9932 124.278 78.1754C123.321 78.5404 121.887 79.1326 120.135 79.9918C116.613 81.7188 111.914 84.4732 107.241 88.545C98.0701 96.537 88.7887 109.73 88.8699 131.298C88.9519 153.061 98.0899 167.177 107.138 175.992C111.719 180.456 116.305 183.574 119.722 185.563C121.424 186.553 122.815 187.251 123.742 187.687C124.204 187.904 124.549 188.055 124.756 188.142C124.859 188.186 124.928 188.215 124.96 188.227L124.971 188.232L124.979 188.235L125.403 188.398L250.832 253.285L250.977 253.367C264.328 260.912 270.959 273.081 269.895 285.642C268.858 297.892 260.634 308.664 248.289 314.037L247.902 314.206L160.818 342.779ZM142.236 329.889C142.171 328.762 142.101 327.655 142.026 326.568C140.669 306.791 137.751 295.579 132.846 288.702C128.378 282.438 121.218 278.41 107.004 276.153C94.1299 274.109 76.9717 273.735 53.5116 273.677V359.001L142.236 329.889ZM305.986 88.4391C306.134 90.7802 306.298 93.0352 306.483 95.2077C308.185 115.234 311.474 126.422 316.582 133.165C321.276 139.361 328.601 143.165 342.671 145.186C355.353 147.008 371.964 147.188 394.421 147.206V60.7982L305.986 88.4391Z" fill="black" class="__web-inspector-hide-shortcut__"/>
<path d="M21.9121 390.189C21.9121 392.674 21.3262 394.715 20.1543 396.311C18.9622 397.907 17.265 398.766 15.0627 398.887V392.553C15.8103 392.492 16.3558 392.27 16.6993 391.886C17.0428 391.502 17.2145 391.007 17.2145 390.401C17.2145 389.856 17.0832 389.411 16.8205 389.068C16.5376 388.704 16.1537 388.522 15.6688 388.522C15.0425 388.522 14.5576 388.815 14.2141 389.401C13.8706 389.987 13.4867 390.937 13.0624 392.25C12.5977 393.644 12.1532 394.775 11.7289 395.644C11.2844 396.493 10.6479 397.24 9.81954 397.887C8.97093 398.513 7.86977 398.827 6.51605 398.827C5.14212 398.827 3.97024 398.483 3.00041 397.796C2.01038 397.109 1.2628 396.159 0.757679 394.947C0.25256 393.735 0 392.361 0 390.825C0 388.34 0.585939 386.36 1.75782 384.885C2.90949 383.39 4.53598 382.592 6.63728 382.491V388.946C5.99073 388.967 5.50581 389.169 5.18253 389.553C4.85926 389.916 4.69762 390.391 4.69762 390.977C4.69762 391.422 4.82895 391.785 5.09161 392.068C5.35427 392.351 5.72806 392.492 6.21298 392.492C6.61707 392.492 6.97066 392.341 7.27373 392.038C7.5566 391.714 7.80916 391.32 8.03141 390.856C8.23346 390.391 8.49612 389.704 8.8194 388.795C9.28411 387.441 9.74882 386.33 10.2135 385.461C10.658 384.572 11.2945 383.814 12.1229 383.188C12.9311 382.541 13.9615 382.218 15.2142 382.218C16.4871 382.218 17.6287 382.541 18.6389 383.188C19.6492 383.814 20.4473 384.734 21.0332 385.946C21.6191 387.138 21.9121 388.552 21.9121 390.189Z" fill="black"/>
<path d="M0.333378 360.333H5.0613V366.031H21.7V371.971H5.0613V377.608H0.333378V360.333Z" fill="black"/>
<path fill-rule="evenodd" clip-rule="evenodd" d="M18.2146 349.164L21.7 350.316V356.559L0.333378 348.77V341.921L21.7 334.162V340.436L18.2146 341.587V349.164ZM13.6686 343.072L6.75851 345.376L13.6686 347.649V343.072Z" fill="black"/>
<path fill-rule="evenodd" clip-rule="evenodd" d="M21.7 318.376L13.8201 322.619V323.255H21.7V329.195H0.333378V319.83C0.333378 318.113 0.636451 316.658 1.2426 315.466C1.82853 314.274 2.64683 313.375 3.69748 312.769C4.72792 312.163 5.8897 311.86 7.18281 311.86C8.63756 311.86 9.92056 312.264 11.0318 313.072C12.1229 313.86 12.9008 315.022 13.3655 316.557L21.7 311.738V318.376ZM9.75892 323.255V320.315C9.75892 319.507 9.56698 318.901 9.18309 318.497C8.79919 318.093 8.24356 317.891 7.51619 317.891C6.82922 317.891 6.2938 318.103 5.90991 318.527C5.50581 318.931 5.30376 319.527 5.30376 320.315V323.255H9.75892Z" fill="black"/>
<path d="M0.333378 290.034H5.0613V295.732H21.7V301.672H5.0613V307.309H0.333378V290.034Z" fill="black"/>
<path d="M0.333378 278.987H12.729C13.8807 278.987 14.7697 278.724 15.3961 278.199C16.0224 277.653 16.3356 276.835 16.3356 275.744C16.3356 274.653 16.0224 273.835 15.3961 273.289C14.7495 272.723 13.8605 272.441 12.729 272.441H0.333378V266.5H12.729C14.6889 266.5 16.3659 266.914 17.76 267.743C19.134 268.571 20.1745 269.703 20.8817 271.137C21.5686 272.552 21.9121 274.128 21.9121 275.865C21.9121 277.603 21.5686 279.159 20.8817 280.533C20.1745 281.886 19.134 282.957 17.76 283.745C16.3861 284.513 14.7091 284.897 12.729 284.897H0.333378V278.987Z" fill="black"/>
<path fill-rule="evenodd" clip-rule="evenodd" d="M7.45557 243.318C8.74868 243.318 9.93066 243.621 11.0015 244.227C12.0522 244.813 12.9008 245.712 13.5473 246.924C14.1737 248.117 14.4868 249.581 14.4868 251.319V254.259H21.7V260.199H0.333378V251.319C0.333378 249.602 0.636451 248.147 1.2426 246.955C1.84874 245.742 2.68724 244.833 3.75809 244.227C4.82895 243.621 6.06144 243.318 7.45557 243.318ZM9.75892 251.895C9.75892 250.218 8.99114 249.379 7.45557 249.379C5.8998 249.379 5.12192 250.218 5.12192 251.895V254.259H9.75892V251.895Z" fill="black"/>
<path d="M445.538 146.277C446.71 144.68 447.295 142.64 447.295 140.155C447.295 138.518 447.003 137.104 446.417 135.911C445.831 134.699 445.033 133.78 444.022 133.154C443.012 132.507 441.87 132.184 440.598 132.184C439.345 132.184 438.314 132.507 437.506 133.154C436.678 133.78 436.041 134.538 435.597 135.427C435.132 136.295 434.667 137.407 434.203 138.76C433.88 139.67 433.617 140.357 433.415 140.821C433.193 141.286 432.94 141.68 432.657 142.003C432.354 142.306 432 142.458 431.596 142.458C431.111 142.458 430.738 142.316 430.475 142.034C430.212 141.751 430.081 141.387 430.081 140.942C430.081 140.357 430.243 139.882 430.566 139.518C430.889 139.134 431.374 138.932 432.021 138.912V132.456C429.919 132.557 428.293 133.356 427.141 134.851C425.969 136.326 425.383 138.306 425.383 140.791C425.383 142.327 425.636 143.7 426.141 144.913C426.646 146.125 427.394 147.075 428.384 147.762C429.354 148.449 430.526 148.792 431.899 148.792C433.253 148.792 434.354 148.479 435.203 147.853C436.031 147.206 436.668 146.458 437.112 145.61C437.537 144.741 437.981 143.61 438.446 142.215C438.87 140.902 439.254 139.952 439.597 139.367C439.941 138.781 440.426 138.488 441.052 138.488C441.537 138.488 441.921 138.669 442.204 139.033C442.467 139.377 442.598 139.821 442.598 140.367C442.598 140.973 442.426 141.468 442.083 141.852C441.739 142.236 441.194 142.458 440.446 142.518V148.853C442.648 148.731 444.346 147.873 445.538 146.277Z" fill="black"/>
<path fill-rule="evenodd" clip-rule="evenodd" d="M447.083 121.603L443.598 120.451V112.874L447.083 111.723V105.449L425.717 113.208V120.057L447.083 127.846V121.603ZM432.142 116.663L439.052 114.36V118.936L432.142 116.663Z" fill="black"/>
<path d="M431.445 88.2686C431.748 87.6624 432.182 87.1876 432.748 86.8441V80.4493C430.505 80.8736 428.737 81.9647 427.444 83.7225C426.151 85.4803 425.505 87.7028 425.505 90.3901C425.505 92.5318 425.969 94.4209 426.899 96.0575C427.808 97.6941 429.091 98.967 430.748 99.8762C432.384 100.765 434.253 101.21 436.355 101.21C438.476 101.21 440.365 100.765 442.022 99.8762C443.659 98.967 444.942 97.6941 445.871 96.0575C446.78 94.4007 447.235 92.5015 447.235 90.3598C447.235 88.602 446.922 87.0361 446.295 85.6622C445.649 84.2882 444.831 83.1568 443.84 82.2677C442.85 81.3585 441.79 80.6716 440.658 80.2069H434.9V91.2993H439.173V85.3288C441.052 86.2178 441.992 87.7028 441.992 89.7839C441.992 91.5417 441.517 92.8854 440.567 93.8148C439.597 94.724 438.193 95.1786 436.355 95.1786C434.718 95.1786 433.415 94.7543 432.445 93.9057C431.475 93.0369 430.99 91.8549 430.99 90.3598C430.99 89.5516 431.142 88.8545 431.445 88.2686Z" fill="black"/>
<path fill-rule="evenodd" clip-rule="evenodd" d="M443.598 68.5739V60.9971L447.083 59.8454V53.5718L425.717 61.3304V68.1799L447.083 75.9688V69.7255L443.598 68.5739ZM432.142 64.7855L439.052 62.4821V67.0585L432.142 64.7855Z" fill="black"/>
</svg>