<svg width="30" height="39" viewBox="0 0 30 39" fill="none" xmlns="http://www.w3.org/2000/svg">
<g style="mix-blend-mode:multiply" opacity="0.6">
<path d="M29.792 22.0745C28.9097 17.9519 25.453 13.8727 22.3289 11.3703C20.8563 10.1319 19.1835 9.1536 17.3824 8.47724C16.1887 8.27021 14.9778 8.17818 13.7665 8.20239C12.8553 8.20239 11.9441 8.28919 11.0474 8.36151H10.599C8.43562 9.01842 6.45029 10.1597 4.79377 11.6986C3.13724 13.2375 1.85305 15.1337 1.03872 17.2431C0.115898 19.591 -0.163702 22.1427 0.228776 24.6348C0.981885 27.298 2.30443 29.7657 4.10496 31.8674C5.13657 33.2415 6.2575 34.5462 7.46048 35.773C11.4813 39.8088 19.0312 38.666 23.3702 35.6284C24.7393 34.6827 25.9541 33.5312 26.9716 32.2146C29.0166 29.6534 30.0876 26.4501 29.9945 23.1739C29.9449 22.8043 29.8774 22.4374 29.792 22.0745Z" fill="#8A7D63"/>
</g>
<path d="M22.4851 10.4013C20.6259 8.75355 18.2907 7.74031 15.8174 7.50827C9.56925 7.23343 3.1475 10.517 0.920132 16.6936C-1.4374 23.2174 0.920127 31.1588 6.83566 34.6883C9.81889 36.3399 13.299 36.8557 16.633 36.1404C19.9669 35.4252 22.9293 33.5272 24.9728 30.7972C29.5287 24.6495 28.7911 15.2471 22.4851 10.4013Z" fill="url(#paint0_radial_43_46252)"/>
<path d="M21.8196 10.2416C20.01 8.6728 17.7538 7.71152 15.3689 7.49321C9.32322 7.23284 3.10397 10.3862 0.905531 16.1723C-0.247536 19.2349 -0.300994 22.6029 0.75429 25.7006C1.80957 28.7982 3.90805 31.433 6.69089 33.1544C9.72126 34.8275 13.2705 35.2977 16.6319 34.4714C19.9934 33.645 22.9203 31.5828 24.8298 28.6953C26.7394 25.8079 27.4914 22.3071 26.9363 18.89C26.3811 15.4729 24.5594 12.3903 21.834 10.256L21.8196 10.2416Z" fill="url(#paint1_radial_43_46252)"/>
<g style="mix-blend-mode:multiply" opacity="0.4">
<path d="M18.0053 20.3097C16.8627 21.1921 14.968 20.6135 13.7676 19.0513C12.5671 17.489 12.5237 15.4928 13.6518 14.6249C14.78 13.757 16.6892 14.3212 17.8896 15.8979C19.0901 17.4746 19.1479 19.4418 18.0053 20.3097Z" fill="#2C2D40"/>
</g>
<path opacity="0.2" d="M2.23887 25.8934C1.34094 23.8612 1.0016 21.6261 1.25585 19.4189C1.51011 17.2118 2.34874 15.1124 3.68521 13.3377C8.35689 7.39248 15.9357 8.72328 18.1486 9.5478C19.5822 10.0751 20.8693 10.9368 21.9032 12.0613C22.937 13.1859 23.6878 14.5408 24.0931 16.0137C24.0931 16.0137 20.8243 9.9962 14.8799 10.6616C8.93543 11.327 7.64818 13.1207 7.89406 14.8276C8.13994 16.5345 9.21022 24.4325 4.10464 25.0689C2.91864 25.228 2.77402 25.9658 3.07775 26.9349C3.38148 27.9041 2.58599 26.9205 2.23887 25.8934Z" fill="url(#paint2_radial_43_46252)"/>
<g style="mix-blend-mode:multiply">
<path d="M21.8196 10.2416C20.01 8.6728 17.7538 7.71152 15.3689 7.49321C9.32322 7.23284 3.10397 10.3862 0.905531 16.1723C-0.247536 19.2349 -0.300994 22.6029 0.75429 25.7006C1.80957 28.7982 3.90805 31.433 6.69089 33.1544C9.72126 34.8275 13.2705 35.2977 16.6319 34.4714C19.9934 33.645 22.9203 31.5828 24.8298 28.6953C26.7394 25.8079 27.4914 22.3071 26.9363 18.89C26.3811 15.4729 24.5594 12.3903 21.834 10.256L21.8196 10.2416ZM16.7863 33.3858C15.0941 33.8401 13.3289 33.9564 11.5917 33.728C9.85452 33.4997 8.17936 32.9312 6.66195 32.0551C5.19632 31.1532 3.93505 29.9553 2.95878 28.538C1.9825 27.1208 1.31273 25.5153 0.992308 23.8244C0.265989 20.405 0.865703 16.8373 2.67007 13.8434C3.651 12.3657 4.95497 11.1304 6.48341 10.2307C8.01186 9.33108 9.72478 8.79069 11.4927 8.6504C14.559 8.25985 17.5673 8.08627 20.272 9.83656C23.0878 11.5715 25.1377 14.3133 26.0053 17.505C26.873 20.6968 26.4934 24.0992 24.9437 27.0212C24.1036 28.5899 22.9434 29.9645 21.5381 31.0559C20.1329 32.1474 18.5139 32.9313 16.7863 33.3569V33.3858Z" fill="#2C2D40"/>
</g>
<path d="M24.6105 3.32776C24.3068 3.58813 24.032 3.8485 23.7427 4.12334C23.4534 4.39817 23.2076 4.58621 23.1353 4.86104L23.222 4.96231C23.4968 4.96231 23.7716 4.64407 23.9741 4.48496L24.9142 3.71832C24.966 3.67804 24.9997 3.61881 25.0078 3.55371C25.016 3.4886 24.9979 3.42294 24.9576 3.37115C24.9174 3.31936 24.8581 3.28568 24.7931 3.27755C24.728 3.26941 24.6623 3.28748 24.6105 3.32776Z" fill="#FFFCB2"/>
<path d="M19.781 0.882943C19.781 0.564706 19.2603 0.579171 19.2892 0.882943C19.3616 1.46155 19.4773 2.04016 19.5496 2.61877C19.5591 2.64771 19.5775 2.67291 19.6022 2.69077C19.6269 2.70864 19.6566 2.71825 19.687 2.71825C19.7175 2.71825 19.7472 2.70864 19.7718 2.69077C19.7965 2.67291 19.8149 2.64771 19.8244 2.61877C19.9477 2.0449 19.9329 1.44994 19.781 0.882943Z" fill="#FFFCB2"/>
<path d="M15.616 6.40861L13.4176 5.71428C13.0994 5.61303 12.9548 6.13376 13.273 6.23502C14.0147 6.54076 14.8147 6.67906 15.616 6.64003C15.7317 6.66896 15.7028 6.45201 15.616 6.40861Z" fill="#FFFCB2"/>
<path d="M15.8896 3.63149C15.4845 3.27507 15.0596 2.94187 14.6168 2.63342C14.3276 2.45984 14.0817 2.89379 14.3565 3.08183C14.7885 3.40901 15.2796 3.64966 15.8029 3.7906C15.8217 3.7913 15.8403 3.78674 15.8567 3.77743C15.873 3.76812 15.8865 3.75445 15.8955 3.73792C15.9045 3.72139 15.9087 3.70266 15.9077 3.68386C15.9067 3.66507 15.9004 3.64693 15.8896 3.63149Z" fill="#FFFCB2"/>
<path d="M25.5813 3.24037C25.5265 3.07245 25.4201 2.9261 25.2772 2.82221C25.1344 2.71831 24.9624 2.66216 24.7858 2.66174C24.5851 2.66582 24.3916 2.73713 24.2362 2.86426C23.9325 3.12463 23.6577 3.38501 23.3395 3.70324L23.2382 3.79003C22.9366 4.02988 22.7024 4.34388 22.5585 4.70135C22.5254 4.80173 22.5174 4.90865 22.5349 5.01285C22.5525 5.11705 22.5951 5.21541 22.6592 5.29944C22.7233 5.38346 22.8069 5.45061 22.9027 5.49511C22.9985 5.5396 23.1038 5.56008 23.2093 5.55479H23.3105C23.6565 5.47679 23.9727 5.30108 24.2217 5.04852L24.3374 4.94725L24.7279 4.62902C24.916 4.4699 25.0895 4.32524 25.2775 4.19505C25.4223 4.08826 25.5297 3.93845 25.5842 3.76699C25.6388 3.59553 25.6377 3.41121 25.5813 3.24037ZM24.9159 3.71772L23.9758 4.48438C23.7734 4.64349 23.4986 4.9328 23.2237 4.96173C23.2237 4.96173 23.1225 4.96172 23.1515 4.86046C23.1804 4.75921 23.5564 4.32526 23.7589 4.12275C23.9614 3.92023 24.323 3.58753 24.6267 3.32715C24.6754 3.28529 24.7362 3.25996 24.8003 3.25482C24.8693 3.23948 24.9416 3.2522 25.0013 3.29018C25.061 3.32816 25.1031 3.38828 25.1185 3.45734C25.1338 3.52639 25.1211 3.59871 25.0831 3.65839C25.0451 3.71807 24.985 3.76023 24.9159 3.77557V3.71772Z" fill="#2C2D40"/>
<path d="M20.3742 0.76677C20.3526 0.555783 20.2533 0.360384 20.0955 0.218654C19.9378 0.0769237 19.7329 -0.000980943 19.5208 0.000118297C19.4035 -0.00188852 19.287 0.0216592 19.1796 0.0691156C19.0723 0.116572 18.9765 0.186806 18.8989 0.27496C18.8222 0.357402 18.7653 0.456331 18.7327 0.564148C18.7001 0.671965 18.6927 0.785797 18.7109 0.896951C18.7109 1.22965 18.7977 1.56236 18.8411 1.88059C18.8844 2.19883 18.9278 2.38688 18.9568 2.63279C18.9606 2.80919 19.0275 2.97838 19.1453 3.10968C19.2632 3.24097 19.4242 3.32568 19.5992 3.34843C19.7741 3.37118 19.9514 3.33045 20.0989 3.23365C20.2464 3.13686 20.3544 2.99038 20.4031 2.82082C20.568 2.28844 20.568 1.71865 20.4031 1.18627C20.4176 1.04162 20.3887 0.882491 20.3742 0.76677ZM19.8246 2.60385C19.8122 2.62831 19.7937 2.64914 19.7709 2.66435C19.7481 2.67956 19.7218 2.68861 19.6944 2.69064C19.6584 2.69082 19.6237 2.67758 19.5969 2.65351C19.5702 2.62944 19.5534 2.59626 19.5498 2.56046C19.4775 1.98185 19.3617 1.40325 19.2894 0.824643C19.2845 0.793121 19.2871 0.760865 19.2969 0.730527C19.3068 0.70019 19.3237 0.672614 19.3463 0.650052C19.3689 0.627491 19.3964 0.610582 19.4268 0.600699C19.4571 0.590817 19.4893 0.588251 19.5208 0.593195C19.5532 0.591238 19.5855 0.59568 19.6161 0.606261C19.6467 0.616843 19.6749 0.633362 19.6991 0.654864C19.7232 0.676366 19.743 0.70243 19.7571 0.731565C19.7712 0.760699 19.7794 0.792331 19.7812 0.824643C19.9401 1.40537 19.955 2.01607 19.8246 2.60385Z" fill="#2C2D40"/>
<path d="M15.8021 5.84414L14.7752 5.52593L13.6182 5.14982C13.5222 5.13577 13.4248 5.13577 13.3289 5.14982C13.1263 5.15483 12.932 5.23182 12.781 5.36699C12.6299 5.50216 12.5319 5.6867 12.5045 5.88756C12.4677 6.09187 12.508 6.30256 12.6175 6.47889C12.727 6.65523 12.898 6.78468 13.0975 6.84225C13.7679 7.10146 14.4765 7.2481 15.1947 7.27621C15.3486 7.29102 15.5036 7.29102 15.6575 7.27621C15.8129 7.25668 15.9567 7.18413 16.0648 7.0708C16.1728 6.95747 16.2384 6.81033 16.2505 6.65421C16.2795 6.48829 16.2508 6.31745 16.1692 6.17008C16.0876 6.02272 15.9581 5.90769 15.8021 5.84414ZM15.6141 6.63973H15.2525C14.5841 6.60051 13.9256 6.45905 13.3 6.22025C13.2396 6.20612 13.1858 6.17198 13.1473 6.1234C13.1088 6.07482 13.0878 6.01465 13.0878 5.95265C13.0878 5.89065 13.1088 5.83046 13.1473 5.78188C13.1858 5.7333 13.2396 5.69918 13.3 5.68505H13.3868L15.5852 6.37937C15.7009 6.4517 15.7298 6.66867 15.6141 6.66867V6.63973Z" fill="#2C2D40"/>
<path d="M15.9049 2.87924C15.6 2.60596 15.2762 2.35459 14.9359 2.12704C14.8247 2.0568 14.6986 2.01367 14.5677 2.00114C14.4369 1.9886 14.3049 2.007 14.1824 2.05486C14.0599 2.10272 13.9504 2.1787 13.8628 2.27666C13.7751 2.37463 13.7116 2.49185 13.6775 2.61885C13.6269 2.7957 13.6347 2.9842 13.6999 3.15624C13.765 3.32828 13.884 3.47466 14.0391 3.57356C14.5175 3.93414 15.0635 4.19485 15.6446 4.34022H15.7747C15.9187 4.34658 16.061 4.30703 16.181 4.22725C16.301 4.14748 16.3926 4.03163 16.4425 3.89641C16.4924 3.76119 16.498 3.61362 16.4586 3.47499C16.4192 3.33636 16.3367 3.21384 16.2231 3.12514C16.1124 3.04931 16.0062 2.96721 15.9049 2.87924ZM15.8181 3.79053C15.2949 3.64959 14.8038 3.40893 14.3718 3.08175C14.326 3.05153 14.2909 3.00762 14.2716 2.95629C14.2522 2.90496 14.2496 2.84884 14.264 2.79591C14.2785 2.74299 14.3092 2.69598 14.3519 2.66158C14.3947 2.62719 14.4472 2.60718 14.5019 2.60439C14.5443 2.59107 14.5898 2.59107 14.6321 2.60439C15.0749 2.91284 15.4998 3.24608 15.9049 3.6025C15.9628 3.68929 15.8904 3.77607 15.8181 3.77607V3.79053Z" fill="#2C2D40"/>
<path style="mix-blend-mode:screen" d="M5.2618 12.9616C2.68731 15.117 1.61702 19.876 3.17907 20.7728C4.74111 21.6697 5.03039 18.5307 6.37549 16.7515C7.72059 14.9723 7.56148 11.0088 5.2618 12.9616Z" fill="url(#paint3_radial_43_46252)"/>
<path style="mix-blend-mode:screen" d="M2.2373 23.2166C2.35301 24.3593 3.68361 25.2272 3.94395 24.0266C4.06394 23.6128 4.03225 23.1698 3.85459 22.7773C3.67693 22.3848 3.36498 22.0686 2.97492 21.8858C2.5121 21.7266 2.2373 22.4788 2.2373 23.2166Z" fill="url(#paint4_radial_43_46252)"/>
<path style="mix-blend-mode:screen" d="M17.7295 15.5652C17.7295 15.5652 22.6326 11.0376 19.0746 5.43958C19.6327 5.88931 20.0871 6.45432 20.4066 7.09595C20.7261 7.73758 20.9032 8.44069 20.9259 9.15714C20.9797 10.4086 20.7145 11.6533 20.1554 12.7742C19.5963 13.8951 18.7615 14.8555 17.7295 15.5652Z" fill="url(#paint5_radial_43_46252)"/>
<path style="mix-blend-mode:screen" opacity="0.5" d="M13.2002 33.1687C16.3221 33.2332 19.3526 32.1128 21.6819 30.0329C24.0111 27.9529 25.4662 25.0679 25.7544 21.9582C26.1305 15.1886 24.4238 16.5338 24.1201 18.53C23.8163 20.5262 22.6737 29.0172 12.8242 29.3788C2.97458 29.7405 2.20801 25.0393 2.20801 25.0393C2.20801 25.0393 3.5965 32.431 13.2002 33.1687Z" fill="url(#paint6_radial_43_46252)"/>
<defs>
<radialGradient id="paint0_radial_43_46252" cx="0" cy="0" r="1" gradientUnits="userSpaceOnUse" gradientTransform="translate(4112.69 5932.57) scale(280.98 291.939)">
<stop offset="0.33" stop-color="#56576B"/>
<stop offset="0.86" stop-color="#2C2D40"/>
</radialGradient>
<radialGradient id="paint1_radial_43_46252" cx="0" cy="0" r="1" gradientUnits="userSpaceOnUse" gradientTransform="translate(4613.27 5490.92) scale(470.166 474.963)">
<stop offset="0.33" stop-color="#56576B"/>
<stop offset="0.86" stop-color="#2C2D40"/>
</radialGradient>
<radialGradient id="paint2_radial_43_46252" cx="0" cy="0" r="1" gradientUnits="userSpaceOnUse" gradientTransform="translate(3926.55 3736.98) scale(276.635 223.52)">
<stop stop-color="white"/>
<stop offset="1" stop-color="#FFFB62"/>
</radialGradient>
<radialGradient id="paint3_radial_43_46252" cx="0" cy="0" r="1" gradientUnits="userSpaceOnUse" gradientTransform="translate(802.827 1744.03) scale(17.1949 30.5891)">
<stop offset="0.43" stop-color="white"/>
<stop offset="0.94" stop-color="#FFFB62"/>
</radialGradient>
<radialGradient id="paint4_radial_43_46252" cx="0" cy="0" r="1" gradientUnits="userSpaceOnUse" gradientTransform="translate(295.817 593.318) scale(9.58445 14.7693)">
<stop offset="0.43" stop-color="white"/>
<stop offset="0.77" stop-color="#FFFB62"/>
</radialGradient>
<radialGradient id="paint5_radial_43_46252" cx="0" cy="0" r="1" gradientUnits="userSpaceOnUse" gradientTransform="translate(593.732 2036.94) scale(8.36039 26.4279)">
<stop offset="0.15" stop-color="white"/>
<stop offset="1" stop-color="#FFFB62"/>
</radialGradient>
<radialGradient id="paint6_radial_43_46252" cx="0" cy="0" r="1" gradientUnits="userSpaceOnUse" gradientTransform="translate(4259.22 3564.42) scale(368.636 254.021)">
<stop stop-color="#8BE7FF"/>
<stop offset="0.89" stop-color="#A1FCE7"/>
</radialGradient>
</defs>
</svg>
