<svg width="400" height="50" viewBox="0 0 400 50" fill="none" xmlns="http://www.w3.org/2000/svg">
<g clip-path="url(#clip0_82_773)">
<mask id="mask0_82_773" style="mask-type:alpha" maskUnits="userSpaceOnUse" x="-31" y="-17" width="462" height="84">
<rect x="-31" y="-9.66321" width="14" height="79.7912" transform="rotate(-17.168 -31 -9.66321)" fill="white"/>
<rect x="-1.41602" y="-12.4164" width="14" height="82.498" transform="rotate(-17.168 -1.41602 -12.4164)" fill="white"/>
<rect x="28.855" y="-12.4128" width="14" height="82.8218" transform="rotate(-17.168 28.855 -12.4128)" fill="white"/>
<rect x="59.2134" y="-12.3932" width="14" height="82.72" transform="rotate(-17.168 59.2134 -12.3932)" fill="white"/>
<rect x="89.6885" y="-11.9982" width="14" height="81.9774" transform="rotate(-17.168 89.6885 -11.9982)" fill="white"/>
<rect x="120.121" y="-11.7382" width="14" height="81.786" transform="rotate(-17.168 120.121 -11.7382)" fill="white"/>
<rect x="150.254" y="-12.4468" width="14" height="82.5308" transform="rotate(-17.168 150.254 -12.4468)" fill="white"/>
<rect x="180.693" y="-12.1693" width="14" height="82.1114" transform="rotate(-17.168 180.693 -12.1693)" fill="white"/>
<rect x="211.03" y="-12.2197" width="14" height="82.5128" transform="rotate(-17.168 211.03 -12.2197)" fill="white"/>
<rect x="241.322" y="-12.4126" width="14" height="81.9527" transform="rotate(-17.168 241.322 -12.4126)" fill="white"/>
<rect x="271.776" y="-12.0826" width="14" height="82.0518" transform="rotate(-17.168 271.776 -12.0826)" fill="white"/>
<rect x="302.047" y="-12.3481" width="14" height="82.7341" transform="rotate(-17.168 302.047 -12.3481)" fill="white"/>
<rect x="332.239" y="-12.8676" width="14" height="83.1627" transform="rotate(-17.168 332.239 -12.8676)" fill="white"/>
<rect x="362.791" y="-12.2211" width="14" height="81.9424" transform="rotate(-17.168 362.791 -12.2211)" fill="white"/>
<rect x="392.988" y="-12.7233" width="14" height="82.4731" transform="rotate(-17.168 392.988 -12.7233)" fill="white"/>
</mask>
<g mask="url(#mask0_82_773)">
<rect width="400" height="50" fill="url(#paint0_linear_82_773)"/>
</g>
</g>
<defs>
<linearGradient id="paint0_linear_82_773" x1="232.374" y1="50" x2="232.374" y2="-1.56316e-06" gradientUnits="userSpaceOnUse">
<stop stop-color="white" stop-opacity="0.3"/>
<stop offset="0.596666" stop-color="white" stop-opacity="0.08"/>
<stop offset="1" stop-color="white" stop-opacity="0"/>
</linearGradient>
<clipPath id="clip0_82_773">
<rect width="400" height="50" fill="white"/>
</clipPath>
</defs>
</svg>
