<svg width="30" height="27" viewBox="0 0 30 27" fill="none" xmlns="http://www.w3.org/2000/svg">
<path d="M29.99 9.65258C29.5628 8.49743 29.0565 7.37394 28.6293 6.21879L28.5344 6.09219C28.5192 6.02292 28.4799 5.96127 28.4236 5.91813C27.0787 4.95287 25.5756 4.25663 24.2149 3.30719C23.3452 2.78891 22.5149 2.20711 21.7308 1.56655C21.7147 1.55496 21.6953 1.54873 21.6754 1.54873C21.6556 1.54873 21.6362 1.55496 21.6201 1.56655C19.9018 1.09629 18.1514 0.752532 16.3829 0.538007C14.8007 0.253177 13.2185 0.158239 11.6362 0C11.6362 0 11.6362 0 11.5255 0C10.4017 0.409795 9.30744 0.896201 8.25027 1.4558C7.01086 2.02876 5.7311 2.51003 4.42129 2.89576C4.38923 2.90305 4.36067 2.92123 4.34049 2.94719C4.3203 2.97315 4.30972 3.00531 4.31054 3.03819C3.45614 3.86103 2.57009 4.62058 1.69986 5.45925C1.10477 5.91437 0.57271 6.44648 0.117639 7.04164C-0.23045 7.57965 0.275863 8.21261 0.576486 8.62403C0.877109 9.03545 1.52582 9.90576 2.04796 10.4912C3.06058 12.0736 4.27888 13.656 5.40226 15.1593C8.17116 18.957 10.8926 22.4858 14.2627 26.3943C14.6899 26.8848 17.9177 23.2295 18.2974 22.7864C19.579 21.473 20.7973 20.0647 21.9998 18.6722C23.2023 17.2797 24.3573 15.8872 25.5598 14.5263C26.7623 13.1655 28.4236 11.5831 29.8002 10.0482C29.8539 9.99211 29.8873 9.91972 29.8951 9.84248C29.9256 9.82131 29.9502 9.79281 29.9668 9.75964C29.9834 9.72646 29.9914 9.68965 29.99 9.65258Z" fill="#82D2E5"/>
<g style="mix-blend-mode:multiply" opacity="0.3">
<path d="M29.987 9.65347C29.5598 8.49833 29.0535 7.37483 28.6263 6.21969L28.5314 6.09309C28.5161 6.02382 28.4769 5.96217 28.4206 5.91903C27.0757 4.95377 25.5726 4.25753 24.2119 3.3081C23.3421 2.78982 22.5119 2.20802 21.7278 1.56746C21.7116 1.55587 21.6923 1.54964 21.6724 1.54964C21.6525 1.54964 21.6332 1.55587 21.617 1.56746H21.5221L22.5822 6.2355C22.5822 6.2355 21 10.0491 18.6899 16.078C16.3799 22.1069 14.3388 26.1736 14.3388 26.1736C14.3388 26.1736 13.3104 24.164 11.9971 16.3628C10.6839 8.56163 10.2567 4.76389 10.2567 4.76389L11.8389 0.0167236H11.6807C11.6807 0.0167236 11.6807 0.0167236 11.5699 0.0167236C10.4462 0.426518 9.35187 0.912924 8.29471 1.47252C7.05529 2.04548 5.77554 2.52677 4.46572 2.9125C4.43366 2.9198 4.40511 2.93797 4.38492 2.96393C4.36473 2.98989 4.35415 3.02203 4.35497 3.05491C3.50057 3.87775 2.61452 4.6373 1.7443 5.47596C1.1492 5.93108 0.617143 6.46319 0.162073 7.05835C-0.186016 7.59636 0.320297 8.22932 0.62092 8.64074C0.921542 9.05216 1.57025 9.92249 2.09239 10.508C5.84579 16.0208 9.92463 21.3048 14.3072 26.3319C14.766 26.7908 17.9621 23.1671 18.3418 22.724C19.6234 21.4106 20.8417 20.0023 22.0442 18.6098C23.2467 17.2173 24.4018 15.8248 25.6042 14.4639C26.8067 13.1031 28.4681 11.5207 29.8446 9.98578C29.8983 9.92972 29.9317 9.8573 29.9395 9.78006C29.9682 9.74384 29.9848 9.69958 29.987 9.65347Z" fill="#4DA6D6"/>
</g>
<path style="mix-blend-mode:screen" d="M11.7921 0.380149V0.301025C13.5168 0.522559 14.7667 0.77575 16.1907 1.02893C17.8793 1.45715 19.5985 1.75341 21.333 1.91506C21.3217 3.271 21.5798 4.61567 22.0924 5.87101C20.2542 5.56213 18.4001 5.3561 16.5388 5.25389C14.6085 5.03235 12.6624 4.90577 10.5264 4.62094C11.0169 2.95944 11.4282 1.80429 11.7921 0.380149Z" fill="url(#paint0_linear_43_46233)"/>
<path d="M21.3989 4.87411C21.5571 4.98488 21.9843 5.23807 22.1267 5.34884C21.9369 4.11458 21.6046 2.94361 21.3831 1.91506C19.5794 1.48782 17.9022 1.31376 16.2409 1.02893C15.1017 0.839047 13.0764 0.570031 11.8423 0.301025C15.1249 1.6135 18.3174 3.14118 21.3989 4.87411Z" fill="white"/>
<path style="mix-blend-mode:screen" d="M29.9747 9.85886C29.9913 9.82713 30 9.79183 30 9.756C30 9.72017 29.9913 9.68488 29.9747 9.65314C29.5475 8.498 29.0412 7.37451 28.614 6.21936L28.519 6.09277C28.5038 6.0235 28.4646 5.96184 28.4083 5.9187C27.0634 4.95345 25.5603 4.25721 24.1996 3.30777C23.3298 2.7895 22.4995 2.2077 21.7155 1.56714C21.6993 1.55554 21.6799 1.54932 21.6601 1.54932C21.6402 1.54932 21.6208 1.55554 21.6047 1.56714H21.5098L22.5699 6.23518L29.9588 9.92215C29.9588 9.92215 29.9747 9.87468 29.9747 9.85886Z" fill="url(#paint1_linear_43_46233)"/>
<path style="mix-blend-mode:multiply" opacity="0.6" d="M11.8571 0H11.6989C11.6989 0 11.6989 0 11.5882 0C10.4644 0.409795 9.37013 0.8962 8.31297 1.4558C7.07355 2.02876 5.7938 2.51002 4.48399 2.89575C4.45192 2.90305 4.42337 2.92122 4.40318 2.94718C4.38299 2.97314 4.3724 3.00531 4.37322 3.03819C3.51882 3.86103 2.63278 4.62057 1.76256 5.45924C1.16746 5.91436 0.635406 6.44647 0.180337 7.04163C0.0790639 7.20732 0.0450841 7.40549 0.0853949 7.59545L10.2433 4.6997L11.8571 0Z" fill="url(#paint2_linear_43_46233)"/>
<path style="mix-blend-mode:screen" opacity="0.4" d="M23.4692 6.67859C24.2762 8.68823 25.0515 10.6979 25.8742 12.7233C26.0166 13.0873 26.159 13.4512 26.2856 13.831C27.4723 12.5651 28.7064 11.3625 29.8773 10.0649C29.9189 10.0213 29.9465 9.96615 29.9564 9.90666L23.4692 6.67859Z" fill="url(#paint3_linear_43_46233)"/>
<g style="mix-blend-mode:multiply" opacity="0.8">
<path d="M29.9901 9.65258C29.5629 8.49743 29.0565 7.37394 28.6293 6.21879L28.5344 6.0922C28.5192 6.02293 28.4799 5.96127 28.4237 5.91813C27.0788 4.95287 25.5756 4.25663 24.2149 3.3072C23.3452 2.78892 22.5149 2.20711 21.7308 1.56655C21.7147 1.55496 21.6953 1.54873 21.6755 1.54873C21.6556 1.54873 21.6362 1.55496 21.6201 1.56655C19.9018 1.09629 18.1514 0.752533 16.3829 0.538008C14.8007 0.253177 13.2185 0.158239 11.6362 0C11.6362 0 11.6362 0 11.5255 0C10.4017 0.409796 9.30744 0.896202 8.25028 1.4558C7.01086 2.02876 5.73111 2.51003 4.42129 2.89576C4.38923 2.90306 4.36068 2.92123 4.34049 2.94719C4.3203 2.97315 4.30972 3.00531 4.31054 3.03819C3.45614 3.86104 2.57009 4.62058 1.69986 5.45925C1.10477 5.91437 0.57271 6.44648 0.11764 7.04164C-0.23045 7.57966 0.275864 8.21261 0.576486 8.62404C0.877109 9.03546 1.52582 9.90576 2.04796 10.4912C3.06058 12.0736 10.8451 22.6282 14.2627 26.3152C14.6899 26.7899 17.9177 23.1504 18.2974 22.7073C19.579 21.3939 20.7973 19.9856 21.9998 18.5931C23.2023 17.2006 24.3573 15.8081 25.5598 14.4472C26.7623 13.0864 28.4237 11.504 29.8002 9.96906C29.8539 9.91299 29.8873 9.8406 29.8951 9.76336C29.9384 9.73822 29.9718 9.69916 29.9901 9.65258ZM21.6359 1.91468C21.9207 2.53182 22.9966 3.08566 23.4396 3.40213C24.9457 4.50569 26.5324 5.49481 28.1863 6.3612C28.2212 6.94924 28.3717 7.52462 28.6293 8.05437C28.8034 8.49744 28.9932 8.94052 29.1989 9.36776C27.1771 8.14576 25.0607 7.08746 22.87 6.20298C22.8774 6.17176 22.8774 6.13925 22.87 6.10804C22.7276 5.41178 22.427 4.73135 22.2213 4.05092C22.0156 3.37049 21.8574 2.62676 21.6517 1.91468H21.6359ZM11.7945 0.332289V0.253164C13.235 0.631307 14.7075 0.874995 16.193 0.981076C17.7753 1.26591 19.6265 1.45579 21.3353 1.86721C21.5884 3.1173 21.8099 4.28827 22.0473 5.61748C20.3068 5.39594 18.4873 5.28518 16.6203 5.07947C14.7532 4.87376 12.9178 4.6997 10.7818 4.41487C11.2204 3.09723 11.5589 1.74836 11.7945 0.379759V0.332289ZM1.1619 6.96252C2.41015 5.8459 3.55896 4.62286 4.59534 3.3072C7.0654 2.92273 9.42366 2.01062 11.5097 0.632947C10.9875 1.96216 10.5129 3.25971 9.92743 4.55727C8.34521 5.06364 6.76298 5.38013 5.18076 5.80738C3.69697 6.14374 2.25011 6.62607 0.861287 7.24734L1.1619 6.96252ZM6.11428 15.3176C4.80103 13.5453 3.48778 11.7888 2.30111 9.93742C1.96884 9.43106 1.65239 8.92469 1.28848 8.44997L0.81381 7.817V7.7379C2.39604 7.42142 3.86752 6.8834 5.38645 6.47198C6.90539 6.06056 8.39268 5.83903 9.8325 5.4909C10.2913 8.05438 10.8609 12.042 11.4147 15.365C11.747 17.1689 12.1267 18.9571 12.5223 20.7452C12.8783 22.2659 13.3167 23.7661 13.8355 25.2392C11.0929 22.0395 8.51578 18.7015 6.11428 15.2384V15.3176ZM14.4051 25.7297C14.3983 25.761 14.3983 25.7934 14.4051 25.8246C14.4051 25.8246 14.4051 25.8246 14.4051 25.7455C14.1045 24.1631 13.5824 22.5807 13.2185 20.9983C12.8546 19.4159 11.035 8.71897 10.497 5.25353C12.459 5.25353 21.5726 6.20298 22.3637 6.42451C21.6992 8.0069 19.1993 14.3365 18.5031 15.9189L16.462 21.1091C15.9139 22.6815 15.2254 24.2015 14.4051 25.6506V25.7297ZM21.8099 18.0393C20.6233 19.4476 19.405 20.8401 18.1392 22.1851C17.3955 22.9605 15.9874 24.6853 15.1804 25.429C15.4969 24.7486 16.3354 23.0238 16.6044 22.2643C17.3481 20.4287 18.0601 18.5615 18.7721 16.7101C19.4841 14.8587 20.0379 13.3712 20.6391 11.6939C21.2404 10.0165 22.0315 8.26009 22.5219 6.50364C22.5524 6.51595 22.5864 6.51595 22.6169 6.50364C23.7086 7.15242 24.8636 7.75371 25.9712 8.38666C26.9389 9.02811 27.9545 9.59418 29.0091 10.0798C26.4301 12.5167 24.1358 15.2543 21.8099 18.0393Z" fill="#3C84A9"/>
</g>
<g style="mix-blend-mode:multiply" opacity="0.3">
<path d="M12.1407 18.8301L11.0648 17.7857C9.24523 16.0451 7.36238 14.352 5.55864 12.5797C4.11881 11.1872 2.74228 9.58893 1.20752 8.2439V8.37049C1.57143 8.84521 1.88789 9.35158 2.22015 9.85795C3.40682 11.7093 4.72006 13.4658 6.03331 15.2381C8.44215 18.6746 11.0245 21.9861 13.7704 25.1597C13.2516 23.6866 12.8132 22.1864 12.4571 20.6657C12.4097 20.0486 12.2831 19.4473 12.1407 18.8301Z" fill="#4DA6D6"/>
</g>
<path style="mix-blend-mode:multiply" opacity="0.5" d="M10.6676 5.20618H10.2246C10.5727 7.43735 11.2056 11.7414 11.6011 13.9568L16.4744 20.9668L18.4522 15.9031L18.6737 15.286L10.6676 5.20618Z" fill="url(#paint4_linear_43_46233)"/>
<path style="mix-blend-mode:multiply" opacity="0.5" d="M19.2611 14.4792C19.0554 14.9856 18.8497 15.492 18.644 16.0616C16.508 21.5684 14.6568 25.4136 14.3403 26.0624V26.458C14.9258 26.6795 17.9478 23.2141 18.3276 22.8343C19.1187 22.0273 19.9098 21.2519 20.606 20.3499C20.2262 18.3719 19.7516 16.4572 19.2611 14.4792Z" fill="url(#paint5_linear_43_46233)"/>
<path style="mix-blend-mode:multiply" opacity="0.3" d="M21.9654 18.8153L22.0761 18.6887C23.2153 17.3595 24.3545 15.9986 25.5095 14.6694C25.383 14.3055 25.2564 13.9415 25.114 13.5776C24.2121 11.2831 23.2786 8.98868 22.3768 6.69421C22.0287 7.58035 21.2059 9.6058 20.0825 12.4699C20.2249 12.8339 21.8388 18.3881 21.9654 18.8153Z" fill="url(#paint6_linear_43_46233)"/>
<path style="mix-blend-mode:multiply" opacity="0.3" d="M14.3401 26.1259C14.3401 26.1259 13.3117 24.1163 11.9984 16.3151C10.6852 8.51392 10.258 4.71619 10.258 4.71619L0.100098 7.61196C0.207606 7.99104 0.3966 8.34207 0.653874 8.6405C1.11272 9.25763 1.60321 9.92225 2.12534 10.5077C3.13797 12.0901 11.1599 22.6446 14.3401 26.3316V25.936V26.1259Z" fill="url(#paint7_linear_43_46233)"/>
<path style="mix-blend-mode:screen" opacity="0.4" d="M10.3692 11.8685L10.6857 12.1691C9.95784 7.42198 9.70468 5.15918 9.70468 5.15918L4.95801 6.52003C6.79339 8.22901 8.51801 10.1279 10.3692 11.8685Z" fill="url(#paint8_linear_43_46233)"/>
<path d="M11.8408 0.301025L11.0655 4.33613L22.1095 5.66533L10.2744 4.71589L11.8408 0.301025Z" fill="white"/>
<path style="mix-blend-mode:multiply" d="M29.9747 9.85886C29.9913 9.82713 30 9.79183 30 9.756C30 9.72017 29.9913 9.68488 29.9747 9.65314C29.5475 8.498 29.0412 7.37451 28.614 6.21936L28.519 6.09277C28.5038 6.0235 28.4646 5.96184 28.4083 5.9187C27.0634 4.95345 25.5603 4.25721 24.1996 3.30777C23.3298 2.7895 22.4995 2.2077 21.7155 1.56714C21.6993 1.55554 21.6799 1.54932 21.6601 1.54932C21.6402 1.54932 21.6208 1.55554 21.6047 1.56714H21.5098L22.5699 6.23518L29.9588 9.92215C29.9588 9.92215 29.9747 9.87468 29.9747 9.85886Z" fill="url(#paint9_linear_43_46233)"/>
<defs>
<linearGradient id="paint0_linear_43_46233" x1="1173.03" y1="822.153" x2="1257.58" y2="822.153" gradientUnits="userSpaceOnUse">
<stop offset="0.1" stop-color="#A8FCFF"/>
<stop offset="0.58" stop-color="#4CA2D2"/>
<stop offset="0.97" stop-color="#3A80A5"/>
</linearGradient>
<linearGradient id="paint1_linear_43_46233" x1="940.661" y1="1243.07" x2="976.797" y2="1261.31" gradientUnits="userSpaceOnUse">
<stop offset="0.1" stop-color="#A8FCFF"/>
<stop offset="0.58" stop-color="#4CA2D2"/>
<stop offset="0.97" stop-color="#3A80A5"/>
</linearGradient>
<linearGradient id="paint2_linear_43_46233" x1="1106.75" y1="1124.13" x2="1194.46" y2="1124.13" gradientUnits="userSpaceOnUse">
<stop offset="0.03" stop-color="#3A80A5"/>
<stop offset="0.48" stop-color="#4CA2D2"/>
<stop offset="1" stop-color="#A8FCFF"/>
</linearGradient>
<linearGradient id="paint3_linear_43_46233" x1="728.363" y1="1094.41" x2="754.96" y2="1094.41" gradientUnits="userSpaceOnUse">
<stop offset="0.1" stop-color="#A8FCFF"/>
<stop offset="0.58" stop-color="#4CA2D2"/>
<stop offset="0.97" stop-color="#3A80A5"/>
</linearGradient>
<linearGradient id="paint4_linear_43_46233" x1="857.583" y1="2429.82" x2="902.701" y2="2429.82" gradientUnits="userSpaceOnUse">
<stop offset="0.03" stop-color="#3A80A5"/>
<stop offset="0.27" stop-color="#4CA2D2"/>
<stop offset="0.77" stop-color="#A8FCFF"/>
</linearGradient>
<linearGradient id="paint5_linear_43_46233" x1="666.341" y1="1909.93" x2="684.045" y2="1919.44" gradientUnits="userSpaceOnUse">
<stop offset="0.03" stop-color="#3A80A5"/>
<stop offset="0.27" stop-color="#4CA2D2"/>
<stop offset="0.77" stop-color="#A8FCFF"/>
</linearGradient>
<linearGradient id="paint6_linear_43_46233" x1="600.177" y1="1858.92" x2="634.309" y2="1872.72" gradientUnits="userSpaceOnUse">
<stop offset="0.03" stop-color="#3A80A5"/>
<stop offset="0.27" stop-color="#4CA2D2"/>
<stop offset="0.77" stop-color="#A8FCFF"/>
</linearGradient>
<linearGradient id="paint7_linear_43_46233" x1="1380.67" y1="3229.09" x2="1512.95" y2="3429.14" gradientUnits="userSpaceOnUse">
<stop offset="0.03" stop-color="#3A80A5"/>
<stop offset="0.48" stop-color="#4CA2D2"/>
<stop offset="1" stop-color="#A8FCFF"/>
</linearGradient>
<linearGradient id="paint8_linear_43_46233" x1="579.728" y1="1052.03" x2="568.714" y2="1064.19" gradientUnits="userSpaceOnUse">
<stop offset="0.1" stop-color="#A8FCFF"/>
<stop offset="0.58" stop-color="#4CA2D2"/>
<stop offset="0.97" stop-color="#3A80A5"/>
</linearGradient>
<linearGradient id="paint9_linear_43_46233" x1="939.897" y1="1250.44" x2="980.649" y2="1251.47" gradientUnits="userSpaceOnUse">
<stop offset="0.03" stop-color="#3A80A5"/>
<stop offset="0.48" stop-color="#4CA2D2"/>
<stop offset="1" stop-color="#A8FCFF"/>
</linearGradient>
</defs>
</svg>
