<svg width="40" height="38" viewBox="0 0 40 38" fill="none" xmlns="http://www.w3.org/2000/svg">
<path d="M1.87289 7.71265L7.81368 10.2064V26.1481C3.39079 24.9758 1.26043 21.9713 1.45108 16.9645L3.85058 17.2492C1.7226 15.4659 0.151363 12.0804 1.87289 7.71265Z" fill="white"/>
<path fill-rule="evenodd" clip-rule="evenodd" d="M8.25426 9.15693C8.67692 9.33435 8.95191 9.74803 8.95191 10.2064V26.1481C8.95191 26.5014 8.78784 26.8347 8.50784 27.0502C8.22784 27.2656 7.86366 27.3389 7.52215 27.2483C5.11722 26.6109 3.21978 25.4406 1.96857 23.645C0.724109 21.8591 0.212246 19.5884 0.313805 16.9213C0.325893 16.6038 0.4701 16.3058 0.711564 16.0994C0.855352 15.9765 1.02583 15.8927 1.20684 15.8529C-0.0636236 13.6837 -0.539612 10.7298 0.814086 7.29528C0.926367 7.01041 1.14869 6.7828 1.43083 6.66385C1.71297 6.5449 2.03114 6.54466 2.31347 6.66317L8.25426 9.15693ZM2.63817 15.9592C1.36784 14.2428 0.662439 11.7798 1.50686 8.79342C1.60669 8.44036 1.72818 8.07999 1.87296 7.71267L7.81375 10.2064V26.1481C7.41579 26.0426 7.0364 25.9223 6.67559 25.7871C3.34216 24.5374 1.59461 22.0111 1.44928 18.1105C1.43551 17.7409 1.43612 17.3589 1.45114 16.9646L3.85064 17.2493C3.41539 16.8845 3.00343 16.4527 2.63817 15.9592Z" fill="black"/>
<path d="M37.924 7.71265L31.9832 10.2064V26.1481C36.4061 24.9758 38.5364 21.9713 38.3458 16.9645L35.9463 17.2492C38.0743 15.4659 39.6455 12.0804 37.924 7.71265Z" fill="white"/>
<path fill-rule="evenodd" clip-rule="evenodd" d="M31.5426 9.15693C31.12 9.33435 30.845 9.74803 30.845 10.2064V26.1481C30.845 26.5014 31.009 26.8347 31.289 27.0502C31.569 27.2656 31.9332 27.3389 32.2747 27.2483C34.6797 26.6109 36.5771 25.4406 37.8283 23.645C39.0728 21.8591 39.5846 19.5884 39.4831 16.9213C39.471 16.6038 39.3268 16.3058 39.0853 16.0994C38.9415 15.9765 38.771 15.8927 38.59 15.8529C39.8605 13.6837 40.3365 10.7298 38.9828 7.29528C38.8705 7.01041 38.6482 6.7828 38.366 6.66385C38.0839 6.5449 37.7657 6.54466 37.4834 6.66317L31.5426 9.15693ZM37.1587 15.9592C38.429 14.2428 39.1344 11.7798 38.29 8.79342C38.1902 8.44036 38.0687 8.07999 37.9239 7.71267L31.9831 10.2064V26.1481C32.3811 26.0426 32.7605 25.9223 33.1213 25.7871C36.4547 24.5374 38.2023 22.0111 38.3476 18.1105C38.3614 17.7409 38.3608 17.3589 38.3457 16.9646L35.9462 17.2493C36.3815 16.8845 36.7934 16.4527 37.1587 15.9592Z" fill="black"/>
<path d="M19.8627 6.13672L25.2954 12.0317L32.9319 13.9662L30.7282 21.7957L32.9319 29.6251L25.2954 31.5596L19.8627 37.2916L14.4299 31.5596L6.79346 29.6251L8.99713 21.7957L6.79346 13.9662L14.4299 12.0317L19.8627 6.13672Z" fill="black"/>
<path fill-rule="evenodd" clip-rule="evenodd" d="M19.8267 0L26.0904 6.55034L34.8947 8.69987L32.354 17.3997L34.8947 26.0996L26.0904 28.2491L19.8267 34.7995L13.5631 28.2491L4.75879 26.0996L7.29948 17.3997L4.75879 8.69987L13.5631 6.55034L19.8267 0ZM14.2152 7.67992L6.32759 9.60566L8.60376 17.3997L6.32759 25.1938L14.2152 27.1196L19.8267 32.9879L25.4382 27.1196L33.3259 25.1938L31.0497 17.3997L33.3259 9.60566L25.4382 7.67992L19.8267 1.81158L14.2152 7.67992Z" fill="black"/>
<mask id="mask0_2020_17234" style="mask-type:alpha" maskUnits="userSpaceOnUse" x="6" y="1" width="28" height="32">
<path d="M19.8268 1.81152L25.4383 7.67987L33.3259 9.6056L31.0497 17.3997L33.3259 25.1938L25.4383 27.1195L19.8268 32.9878L14.2153 27.1195L6.32764 25.1938L8.6038 17.3997L6.32764 9.6056L14.2153 7.67987L19.8268 1.81152Z" fill="#D9D9D9"/>
</mask>
<g mask="url(#mask0_2020_17234)">
<path d="M-2.56787 14.1072L27.1107 -3.02852L34.1459 9.15735L4.46733 26.293L-2.56787 14.1072Z" fill="#FFE35B"/>
<path d="M4.46729 26.293L34.1458 9.15727L41.181 21.3431L11.5025 38.4788L4.46729 26.293Z" fill="#FFB921"/>
<path d="M19.827 17.6161L5.9917 9.46599L19.827 1.50732V17.6161Z" fill="white"/>
<path d="M19.8269 17.3998L33.8047 25.4303L19.8269 33.5085V17.3998Z" fill="#C95E40"/>
</g>
<path d="M29.2643 17.8022C29.2643 22.9685 25.0391 27.1566 19.827 27.1566C14.6149 27.1566 10.3896 22.9685 10.3896 17.8022C10.3896 12.6359 14.6149 8.44775 19.827 8.44775C25.0391 8.44775 29.2643 12.6359 29.2643 17.8022Z" fill="#FFE35B"/>
<path d="M28.8747 17.3544C28.8747 22.5207 24.6494 26.7089 19.4373 26.7089C14.2252 26.7089 10 22.5207 10 17.3544C10 12.1881 14.2252 8 19.4373 8C24.6494 8 28.8747 12.1881 28.8747 17.3544Z" fill="black"/>
<path d="M16.132 14.756C16.132 14.716 16.304 14.68 16.648 14.648C17 14.608 17.288 14.588 17.512 14.588C18.4 14.588 18.864 14.704 18.904 14.936L19.936 20.216L20.908 14.936C20.956 14.704 21.452 14.588 22.396 14.588C22.628 14.588 22.92 14.604 23.272 14.636C23.624 14.668 23.8 14.704 23.8 14.744L21.676 22.688C21.644 22.816 21.408 22.9 20.968 22.94C20.288 23.012 19.668 23.028 19.108 22.988C18.556 22.94 18.264 22.86 18.232 22.748L16.132 14.756Z" fill="#FFBF21"/>
<path d="M18.8423 11.4373C19.3858 12.2985 18.761 13.6693 17.4466 14.499C16.1322 15.3287 14.626 15.3032 14.0824 14.4419C13.5388 13.5807 14.1637 12.21 15.4781 11.3803C16.7925 10.5506 18.2987 10.5761 18.8423 11.4373Z" fill="white"/>
</svg>
