<svg width="101" height="152" viewBox="0 0 101 152" fill="none" xmlns="http://www.w3.org/2000/svg">
<path d="M99.236 38.4426C98.3217 37.3885 97.1172 36.6271 95.7729 36.2534C94.4286 35.8797 93.004 35.9103 91.6769 36.3414L51.3008 49.5196L65.3457 9.55102C65.9709 7.87195 65.9364 6.01828 65.249 4.36368C64.5616 2.70909 63.2725 1.37665 61.6417 0.635014C60.0108 -0.106622 58.1594 -0.202304 56.4608 0.367263C54.7622 0.93683 53.3426 2.12928 52.4884 3.7042L0.922117 94.33C0.202296 95.6013 -0.108059 97.0636 0.0333689 98.5177C0.174797 99.9718 0.76112 101.347 1.71242 102.456C2.66373 103.564 3.93374 104.353 5.34936 104.713C6.76498 105.074 8.25735 104.989 9.62306 104.471L53.9728 87.6153L36.7308 142.429C36.2135 144.13 36.3524 145.962 37.1202 147.565C37.888 149.168 39.2288 150.425 40.878 151.088C42.5271 151.75 44.3647 151.771 46.028 151.144C47.6913 150.518 49.0593 149.291 49.8621 147.705L100.104 46.3221C100.759 45.0712 101.026 43.6535 100.871 42.25C100.717 40.8465 100.147 39.521 99.236 38.4426Z" fill="#003C80"/>
<path d="M58.7686 6.03381L7.22514 96.6825C6.9581 97.0946 6.831 97.5818 6.86267 98.0719C6.89434 98.562 7.08311 99.0287 7.40098 99.403C7.71885 99.7774 8.14889 100.039 8.62732 100.15C9.10575 100.26 9.60709 100.214 10.057 100.017L59.134 81.3802C59.5458 81.1684 60.0122 81.0869 60.4715 81.1463C60.9307 81.2058 61.3611 81.4034 61.7054 81.7131C62.0497 82.0228 62.2918 82.4298 62.3995 82.8802C62.5071 83.3307 62.4754 83.8032 62.3083 84.2351L43.5362 143.777C43.306 144.349 43.3127 144.99 43.5547 145.557C43.7966 146.125 44.2541 146.573 44.8265 146.803C45.3989 147.033 46.0392 147.027 46.6067 146.785C47.1742 146.543 47.6223 146.085 47.8524 145.513L98.0941 44.1067C98.3214 43.6973 98.4174 43.2279 98.369 42.7621C98.3206 42.2963 98.1302 41.8567 97.8237 41.5027C97.5171 41.1488 97.1092 40.8976 96.6551 40.7833C96.201 40.669 95.7228 40.697 95.2852 40.8635L50.2275 55.572C49.8124 55.7284 49.3606 55.7606 48.9275 55.6645C48.4944 55.5684 48.0987 55.3483 47.7886 55.031C47.4786 54.7136 47.2677 54.3129 47.1817 53.8776C47.0957 53.4423 47.1383 52.9915 47.3043 52.58L62.9935 7.95229C63.2478 7.39199 63.2693 6.75357 63.053 6.17748C62.8367 5.60139 62.4004 5.13483 61.8402 4.88042C61.2799 4.62602 60.6416 4.60462 60.0655 4.82092C59.4895 5.03722 59.023 5.47351 58.7686 6.03381Z" fill="#91D9F8"/>
<path d="M10.0576 100.016L59.1347 81.3795C59.4274 81.261 59.7416 81.2045 60.0574 81.2136C60.3731 81.2228 60.6835 81.2973 60.9689 81.4326C61.2544 81.5678 61.5087 81.7608 61.7157 81.9993C61.9228 82.2378 62.0782 82.5167 62.172 82.8183C69.5484 74.5962 88.2977 53.3787 86.0596 52.2367C83.2963 50.8435 31.2505 81.9276 27.8934 75.8296C24.5364 69.7315 38.3757 45.522 38.3757 45.522C38.3757 45.522 36.5487 47.2806 33.8083 49.7701L7.13447 96.6817C6.84256 97.1005 6.69934 97.6049 6.72764 98.1146C6.75594 98.6243 6.95414 99.1098 7.29062 99.4936C7.6271 99.8774 8.08245 100.137 8.58399 100.232C9.08553 100.327 9.60436 100.251 10.0576 100.016Z" fill="#37B3E7"/>
<path d="M77.0838 65.645C71.6286 71.464 65.6166 76.7346 59.1338 81.3812C59.5456 81.1694 60.0121 81.0878 60.4713 81.1473C60.9306 81.2067 61.3609 81.4044 61.7053 81.7141C62.0496 82.0238 62.2916 82.4308 62.3993 82.8812C62.507 83.3316 62.4752 83.8042 62.3082 84.2361L44.0385 141.928C43.7796 143.161 43.5741 144.257 43.4219 145.217C43.5528 145.579 43.7682 145.904 44.0502 146.167C44.3322 146.429 44.6727 146.62 45.0433 146.724C52.3284 133.021 80.2125 67.358 86.1502 52.8779C83.5911 57.4443 80.5518 61.7243 77.0838 65.645Z" fill="white"/>
<path d="M66.0074 78.4805C61.9157 79.8682 57.9053 81.4847 53.995 83.3224L59.1334 81.3811C59.5452 81.1693 60.0117 81.0877 60.4709 81.1471C60.9302 81.2066 61.3605 81.4042 61.7048 81.7139C62.0492 82.0236 62.2912 82.4306 62.3989 82.8811C62.5066 83.3315 62.4748 83.804 62.3077 84.2359L43.5356 143.778C43.3809 144.249 43.3841 144.759 43.5448 145.229C43.7055 145.699 44.015 146.103 44.4263 146.381C47.1439 133.569 68.1769 78.4805 66.0074 78.4805Z" fill="#006AB6"/>
<path d="M7.81957 99.6284C14.6707 85.3539 56.6682 14.7124 58.655 10.5556C60.9387 5.98779 62.9941 7.97481 62.9941 7.97481C63.2515 7.4145 63.2758 6.77488 63.0617 6.19665C62.8475 5.61842 62.4125 5.14896 61.8522 4.89152C61.292 4.63409 60.6524 4.60977 60.0743 4.82393C59.4961 5.03809 59.0266 5.47318 58.7692 6.03348L7.2258 96.6822C6.95158 97.162 6.86065 97.7249 6.96983 98.2667C7.07901 98.8085 7.38091 99.2923 7.81957 99.6284Z" fill="#37B3E7"/>
<path d="M95.2846 40.863L50.2269 55.5714C49.8118 55.7279 49.3601 55.7601 48.927 55.664C48.4939 55.5679 48.0981 55.3478 47.7881 55.0304C47.478 54.7131 47.2671 54.3123 47.1811 53.8771C47.0951 53.4418 47.1377 52.9909 47.3038 52.5795C47.3038 52.5795 43.764 57.5585 44.5633 59.9337C45.3626 62.309 94.4397 41.6624 98.1393 42.1649C97.9198 41.6243 97.5017 41.1882 96.9709 40.9461C96.44 40.704 95.8367 40.6743 95.2846 40.863Z" fill="white"/>
</svg>
