<svg width="30" height="46" viewBox="0 0 30 46" fill="none" xmlns="http://www.w3.org/2000/svg">
<path d="M29.5012 11.4283C29.2294 11.115 28.8713 10.8886 28.4716 10.7775C28.072 10.6664 27.6485 10.6755 27.254 10.8037L15.2509 14.7213L19.4262 2.83936C19.612 2.3402 19.6018 1.78913 19.3974 1.29725C19.1931 0.805366 18.8098 0.409255 18.325 0.188779C17.8402 -0.031697 17.2898 -0.0601414 16.7848 0.109181C16.2799 0.278503 15.8579 0.632998 15.6039 1.1012L0.27413 28.0427C0.0601391 28.4206 -0.0321241 28.8554 0.00992001 29.2876C0.0519641 29.7199 0.226268 30.1287 0.509074 30.4583C0.79188 30.7879 1.16943 31.0223 1.59027 31.1295C2.01111 31.2367 2.45477 31.2115 2.86077 31.0573L16.0452 26.0465L10.9194 42.3418C10.7656 42.8473 10.8069 43.3921 11.0352 43.8687C11.2635 44.3452 11.6621 44.7189 12.1523 44.9158C12.6426 45.1128 13.1889 45.1188 13.6833 44.9326C14.1778 44.7464 14.5845 44.3816 14.8232 43.9102L29.7592 13.7708C29.9538 13.3989 30.0333 12.9774 29.9873 12.5602C29.9414 12.143 29.7721 11.7489 29.5012 11.4283Z" fill="#003C80"/>
<path d="M17.4707 1.79375L2.14775 28.7421C2.06836 28.8646 2.03057 29.0094 2.03999 29.1551C2.0494 29.3008 2.10552 29.4396 2.20002 29.5508C2.29452 29.6621 2.42236 29.74 2.56459 29.7728C2.70682 29.8057 2.85586 29.7919 2.9896 29.7333L17.5794 24.193C17.7018 24.13 17.8405 24.1057 17.977 24.1234C18.1135 24.1411 18.2414 24.1999 18.3438 24.2919C18.4462 24.384 18.5181 24.505 18.5501 24.6389C18.5821 24.7728 18.5727 24.9133 18.523 25.0417L12.9424 42.7424C12.874 42.9126 12.876 43.103 12.9479 43.2717C13.0198 43.4404 13.1558 43.5736 13.326 43.642C13.4961 43.7105 13.6865 43.7085 13.8552 43.6366C14.0239 43.5646 14.1571 43.4286 14.2255 43.2584L29.1615 13.1122C29.2291 12.9905 29.2576 12.8509 29.2433 12.7124C29.2289 12.574 29.1723 12.4433 29.0811 12.3381C28.99 12.2328 28.8687 12.1582 28.7337 12.1242C28.5988 12.0902 28.4566 12.0985 28.3265 12.148L14.9316 16.5206C14.8082 16.5671 14.6739 16.5767 14.5452 16.5481C14.4164 16.5196 14.2988 16.4541 14.2066 16.3598C14.1144 16.2654 14.0517 16.1463 14.0261 16.0169C14.0006 15.8875 14.0132 15.7535 14.0626 15.6312L18.7267 2.36408C18.8023 2.19751 18.8087 2.00772 18.7444 1.83646C18.6801 1.6652 18.5504 1.5265 18.3839 1.45087C18.2173 1.37524 18.0275 1.36888 17.8563 1.43318C17.685 1.49748 17.5464 1.62718 17.4707 1.79375Z" fill="#91D9F8"/>
<path d="M2.99002 29.7332L17.5798 24.1928C17.6668 24.1576 17.7602 24.1408 17.8541 24.1435C17.9479 24.1462 18.0402 24.1684 18.1251 24.2086C18.2099 24.2488 18.2855 24.3061 18.3471 24.377C18.4087 24.448 18.4548 24.5309 18.4827 24.6205C20.6756 22.1762 26.2494 15.8686 25.5841 15.5291C24.7626 15.115 9.2903 24.3557 8.2923 22.5429C7.2943 20.73 11.4085 13.533 11.4085 13.533C11.4085 13.533 10.8654 14.0558 10.0507 14.7958L2.12101 28.7419C2.03423 28.8664 1.99165 29.0163 2.00007 29.1678C2.00848 29.3194 2.0674 29.4637 2.16743 29.5778C2.26746 29.6919 2.40283 29.7692 2.55193 29.7974C2.70103 29.8255 2.85527 29.8029 2.99002 29.7332Z" fill="#37B3E7"/>
<path d="M22.9158 19.5152C21.2941 21.2451 19.5068 22.8119 17.5796 24.1933C17.702 24.1303 17.8407 24.1061 17.9772 24.1237C18.1137 24.1414 18.2417 24.2002 18.344 24.2922C18.4464 24.3843 18.5183 24.5053 18.5504 24.6392C18.5824 24.7731 18.5729 24.9136 18.5233 25.042L13.092 42.1928C13.0151 42.5594 12.954 42.8853 12.9087 43.1705C12.9476 43.2781 13.0116 43.3749 13.0955 43.4529C13.1793 43.5308 13.2805 43.5876 13.3907 43.6186C15.5564 39.5448 23.8459 20.0244 25.6111 15.7197C24.8503 17.0772 23.9468 18.3496 22.9158 19.5152Z" fill="white"/>
<path d="M19.623 23.3309C18.4066 23.7435 17.2144 24.2241 16.0519 24.7703L17.5795 24.1932C17.7019 24.1303 17.8406 24.106 17.9771 24.1237C18.1136 24.1414 18.2415 24.2001 18.3439 24.2922C18.4463 24.3842 18.5182 24.5052 18.5502 24.6392C18.5822 24.7731 18.5728 24.9135 18.5231 25.0419L12.9425 42.7427C12.8965 42.8829 12.8975 43.0344 12.9452 43.174C12.993 43.3137 13.085 43.434 13.2073 43.5167C14.0152 39.7077 20.2679 23.3309 19.623 23.3309Z" fill="#006AB6"/>
<path d="M2.32459 29.6178C4.36132 25.3742 16.8465 4.37368 17.4371 3.13795C18.116 1.78001 18.727 2.37072 18.727 2.37072C18.8036 2.20415 18.8108 2.014 18.7471 1.8421C18.6835 1.6702 18.5541 1.53064 18.3876 1.45411C18.221 1.37758 18.0309 1.37035 17.859 1.43402C17.6871 1.49768 17.5476 1.62703 17.4711 1.7936L2.14807 28.7419C2.06655 28.8845 2.03952 29.0519 2.07198 29.213C2.10444 29.374 2.19419 29.5178 2.32459 29.6178Z" fill="#37B3E7"/>
<path d="M28.3264 12.1478L14.9315 16.5204C14.8081 16.5669 14.6738 16.5765 14.5451 16.5479C14.4163 16.5193 14.2987 16.4539 14.2065 16.3596C14.1143 16.2652 14.0516 16.1461 14.0261 16.0167C14.0005 15.8873 14.0132 15.7533 14.0625 15.6309C14.0625 15.6309 13.0102 17.1111 13.2478 17.8172C13.4854 18.5234 28.0752 12.3855 29.175 12.5348C29.1098 12.3741 28.9855 12.2445 28.8277 12.1725C28.6699 12.1006 28.4905 12.0917 28.3264 12.1478Z" fill="white"/>
</svg>
