<svg width="312" height="61" viewBox="0 0 312 61" fill="none" xmlns="http://www.w3.org/2000/svg">
<g clip-path="url(#clip0_143_11293)">
<path d="M15.2443 5.71807H23.1669V-0.000213623H15.2443C10.841 -0.000213623 7.33033 1.01697 4.72095 3.05129C1.57079 5.48733 0 9.22256 0 14.2657V45.6093H6.15439V25.7962H23.1669V20.0437H6.15439V14.1374C6.15439 8.52167 9.1844 5.71807 15.2443 5.71807Z" fill="#333333"/>
<path d="M40.9179 13.718C38.9609 13.718 37.2526 14.1539 35.7848 15.0257C34.5489 15.7694 33.5359 16.761 32.7549 18.0088V14.359H27.27V45.6088H33.0382V29.2231C33.0382 26.8299 33.5789 24.7272 34.669 22.8981C36.1369 20.4277 38.3599 19.1884 41.3299 19.1884H42.7032V13.718H40.9179Z" fill="#333333"/>
<path d="M73.4234 30.9668C72.7883 34.2748 71.7239 36.6764 70.239 38.181C68.5737 39.9161 66.1619 40.7879 62.9944 40.7879C59.8442 40.7879 57.295 39.7025 55.3379 37.5484C53.5527 35.5569 52.6599 33.2148 52.6599 30.5224C52.6599 27.4368 53.5097 24.8297 55.2091 22.7099C57.0804 20.3594 59.5954 19.1884 62.7369 19.1884C64.7799 19.1884 66.4709 19.5558 67.8098 20.2996C68.3849 20.5904 69.1317 21.1971 70.0416 22.1116L54.411 30.719L56.9002 35.3175L78.0843 23.6331C76.3418 20.2825 74.2476 17.7867 71.8013 16.1369C69.3119 14.53 66.2905 13.718 62.7369 13.718C58.6769 13.718 55.1062 15.0856 52.0248 17.8208C48.4283 20.9919 46.6343 25.2914 46.6343 30.719C46.6343 35.0099 48.2308 38.7024 51.4152 41.7708C54.6084 44.8393 58.3251 46.3779 62.5825 46.3779C67.6381 46.3779 71.8099 44.6343 75.0801 41.1641C77.8268 38.2663 79.2002 35.1295 79.2002 31.7617L73.4234 30.9668Z" fill="#333333"/>
<path d="M85.2692 14.3951V45.6106H91.0115V14.3951H85.2692ZM90.5653 4.89023C89.8614 4.24064 89.0717 3.90729 88.2049 3.90729C87.2862 3.90729 86.4794 4.24064 85.7757 4.89023C85.0718 5.53132 84.7285 6.30059 84.7285 7.21516C84.7285 8.35196 85.0975 9.22384 85.8443 9.81363C86.5396 10.4718 87.3722 10.8051 88.3335 10.8051C89.2433 10.8051 90.0331 10.4718 90.6941 9.81363C91.2863 9.22384 91.5866 8.41183 91.5866 7.36903C91.5866 6.35189 91.2433 5.53132 90.5653 4.89023Z" fill="#333333"/>
<path d="M125.542 17.8805C122.529 15.1112 118.881 13.718 114.59 13.718C110.607 13.718 107.105 14.9403 104.058 17.3762C100.272 20.4021 98.3838 24.6931 98.3838 30.2402C98.3838 34.6679 99.8602 38.4459 102.813 41.5744C105.774 44.6941 109.474 46.2499 113.92 46.2499C115.276 46.2499 116.624 46.0787 117.963 45.7368C119.285 45.3779 120.632 44.882 122.014 44.2496V38.2406C120.504 39.1125 119.182 39.7363 118.032 40.1212C116.907 40.5656 115.714 40.7878 114.461 40.7878C111.353 40.7878 108.804 39.7449 106.804 37.668C105.019 35.8045 104.126 33.6591 104.126 31.2231L103.997 30.2401C103.997 26.428 105.105 23.5645 107.311 21.6585C109.251 20.0087 111.714 19.1883 114.71 19.1883C117.328 19.1883 119.594 20.214 121.508 22.2654C123.353 24.3423 124.28 27.0519 124.28 30.394V45.6085C124.28 48.3863 123.31 50.6174 121.379 52.3098C119.379 54.0534 116.83 54.9168 113.723 54.9168C112.238 54.9168 110.847 54.7887 109.542 54.5409C108.246 54.3272 106.615 53.9341 104.633 53.3615L103.199 58.5668C104.813 59.1223 106.427 59.5585 108.049 59.8746C109.62 60.208 111.577 60.3792 113.92 60.3792C118.89 60.3792 122.838 58.8663 125.748 55.8404C128.624 52.8317 130.057 48.9853 130.057 44.3097V28.3003C130.057 24.1291 128.555 20.6589 125.542 17.8808V17.8805Z" fill="#333333"/>
<path d="M159.567 16.8641C157.395 14.8554 154.546 13.8469 151.019 13.8469C149.189 13.8469 147.584 14.0861 146.203 14.5478C144.795 15.0778 143.464 15.864 142.211 16.8982V-0.000152588H136.598V45.6093H142.211V27.7279C142.211 25.4628 142.778 23.591 143.902 22.1122C145.31 20.249 147.422 19.3173 150.254 19.3173C152.418 19.3173 154.151 19.9924 155.447 21.3431C156.709 22.7192 157.336 24.7107 157.336 27.3178V45.6093H163.231V26.2663C163.231 22.2063 162.014 19.0694 159.567 16.8641Z" fill="#333333"/>
<path d="M176.889 39.1646C176.195 38.5491 175.842 37.8139 175.842 36.9421V19.8556H185.799V14.3939H175.842V-0.000152588H170.16V35.8652C170.16 38.72 170.881 40.9937 172.331 42.6861C173.972 44.635 176.469 45.6093 179.825 45.6093H189.627V40.1475H179.954C178.571 40.1475 177.55 39.8227 176.889 39.1646Z" fill="#333333"/>
<path d="M311.978 19.9151V14.3934C309.746 14.3934 307.566 14.9065 305.437 15.949C302.569 17.3253 300.612 19.3767 299.573 22.1117C298.295 19.5647 296.613 17.6414 294.526 16.3252C292.449 15.0772 290.099 14.4533 287.48 14.4533V19.9151C290.355 19.9151 292.682 21.0604 294.467 23.3426C295.977 25.3599 296.733 27.5737 296.733 29.9841C296.733 32.5056 295.891 34.7793 294.208 36.8137C292.382 39.0359 290.14 40.147 287.48 40.147V45.6089C290.14 45.6089 292.51 45.0276 294.597 43.8482C296.681 42.6771 298.338 40.848 299.573 38.3691C300.784 40.3437 302.08 41.8652 303.462 42.942C305.779 44.72 308.621 45.6089 311.978 45.6089V40.147C310.15 40.147 308.303 39.446 306.432 38.053C303.815 36.1468 302.501 33.4543 302.501 29.9841C302.501 27.1293 303.419 24.7872 305.249 22.9666C307.032 21.1887 309.274 20.1715 311.978 19.9151Z" fill="#F18C0C"/>
<path d="M249.472 0.0426242V6.03445C246.88 5.94889 243.549 5.94889 241.439 6.04037C224.916 6.70707 222.099 15.9383 214.333 31.0675L214.074 31.5544C213.309 32.8707 212.598 34.1444 211.911 35.358C205.19 47.2562 200.512 55.5303 179.894 55.5303H179.86C177.696 55.5303 175.362 55.727 172.822 55.5303V49.5297C175.405 49.735 177.74 49.5639 179.86 49.5752C196.916 49.7033 200.245 43.8057 206.675 32.4289C207.363 31.2066 208.073 29.9416 208.838 28.6337L208.984 28.352C217.121 12.4878 221.113 0.99143 241.439 0.0854167C243.593 -0.00868269 246.924 -0.0257447 249.472 0.0400263V0.0426242Z" fill="#F18C0C"/>
<path d="M221.695 14.3934L218.717 19.8559H231.696V14.3934H221.695Z" fill="#F18C0C"/>
<path d="M263.29 9.70677C258.038 9.71248 253.001 11.8014 249.29 15.5145C245.578 19.2276 243.493 24.2611 243.493 29.5095C243.493 32.0308 243.975 34.5288 244.913 36.8695C244.691 35.6782 244.581 34.4692 244.581 33.2576C244.581 30.657 245.093 28.0819 246.089 25.6793C247.085 23.2767 248.545 21.0937 250.384 19.2548C252.225 17.416 254.409 15.9574 256.814 14.9623C259.218 13.967 261.795 13.4548 264.399 13.4548C268.358 13.4549 272.227 14.6402 275.507 16.8578C278.785 19.0756 281.325 22.2242 282.796 25.8974C281.952 21.3496 279.541 17.2406 275.982 14.2833C272.423 11.3259 267.94 9.70678 263.311 9.70677C263.304 9.70675 263.297 9.70675 263.29 9.70677Z" fill="#6D6D6D"/>
<path d="M249.039 25.2244C246.812 28.1352 245.604 31.6982 245.604 35.363C245.604 37.5544 246.037 39.7244 246.875 41.7491C247.714 43.7738 248.944 45.6134 250.495 47.1631C252.046 48.7126 253.887 49.9419 255.913 50.7805C257.939 51.6192 260.112 52.0508 262.305 52.0508C265.638 52.0508 268.897 51.0535 271.659 49.1874C274.421 47.3211 276.56 44.6715 277.803 41.5797C276.243 43.6161 274.236 45.2661 271.936 46.4018C269.636 47.5375 267.104 48.1283 264.539 48.1283C260.109 48.1283 255.861 46.3701 252.73 43.2406C249.597 40.1111 247.838 35.8664 247.838 31.4405C247.838 29.3108 248.246 27.2008 249.039 25.2244Z" fill="#F18C0C"/>
<path d="M260.138 7.98276C254.128 7.98277 248.365 10.3684 244.115 14.6147C239.866 18.8612 237.479 24.6205 237.479 30.6257C237.479 36.6308 239.866 42.3901 244.115 46.6365C248.365 50.8828 254.128 53.2684 260.138 53.2684C260.852 53.2684 261.564 53.2348 262.275 53.1676C256.659 52.6363 251.445 50.0319 247.648 45.8632C243.854 41.6946 241.75 36.2614 241.75 30.6257C241.75 24.9899 243.854 19.5567 247.648 15.3881C251.445 11.2194 256.659 8.61487 262.275 8.08359C261.564 8.01644 260.852 7.98279 260.138 7.98276Z" fill="#F18C0C"/>
<path d="M253.414 43.6679C253.764 42.4305 253.842 41.4655 255.556 40.0679C257.513 38.9899 260.06 37.9255 260.722 36.6616C260.138 36.6016 259.456 36.4134 259.111 35.8405L261.791 34.8801C264.511 33.1173 265.513 30.1698 265.083 29.0262C264.405 27.955 263.079 28.2133 261.869 28.1734L260.543 28.2191C259.31 28.342 258.15 28.2599 256.947 28.1698C256.056 28.0056 255.531 27.7602 254.814 27.2415C254.312 26.9611 254.213 26.2481 254.29 25.6473C256.832 24.3445 258.394 24.088 259.421 21.9098C260.036 19.8811 260.861 18.5562 262.377 17.4613C264.028 16.4178 264.393 16.4202 265.919 16.009C267.121 15.78 267.626 15.7708 268.601 15.7616C270.122 14.2392 271.842 13.2652 273.934 12.5958C274.935 12.2708 275.966 12.106 277.031 12.0054C276.636 14.1355 275.731 16.2324 274.983 18.2504C276.882 19.73 278.172 21.9382 279.366 23.9819C278.663 23.5391 277.959 23.4488 277.256 23.57C278.926 24.3931 280.738 28.0833 282.033 30.4339L280.132 29.734C281.475 31.7164 281.618 34.1454 281.903 36.4568C282.037 39.2378 281.818 42.0891 280.8 44.8231C279.409 46.0338 277.312 45.8111 275.57 46.7633L272.871 48.2163L273.597 45.6204L272.155 46.4007L267.09 49.1981C264.709 50.5386 261.062 51.2702 257.446 50.5755L258.456 49.8695C257.223 49.7652 256.071 49.0679 255.143 48.1622C254.013 47.0105 253.298 45.7212 253.414 43.6679Z" fill="#F18C0C"/>
<path d="M262.657 24.4337C264.524 23.0806 266.846 22.1545 268.734 21.4447C269.738 21.17 270.738 21.0247 271.771 20.9777C271.23 21.253 270.831 21.5905 270.462 22.0519C272.245 22.4956 273.764 23.7475 274.716 24.9474C274.026 24.5754 273.496 24.593 272.753 24.6672C273.739 25.5762 274.625 26.7146 275.23 27.7028C274.559 27.3794 273.848 27.246 273.126 27.0957C275.942 29.1509 278.146 32.066 279.249 35.4088C278.61 34.7621 277.847 34.3737 277.052 33.9611C277.72 36.8141 278.775 39.8189 278.314 42.5076C277.88 41.9855 277.439 41.5027 276.912 41.0597L276.773 42.6477C276.596 44.0564 276.114 45.3266 275.622 46.645C274.595 45.592 275.388 44.7258 274.479 45.0721C273.953 45.2722 271.837 46.5179 271.143 46.8851C269.899 47.543 268.184 48.5243 266.929 49.2155L265.507 47.318C264.699 46.1014 264.527 45.4678 264.527 44.0954L263.452 46.4306C263.021 43.4266 263.765 40.2784 264.714 37.8373C263.857 38.181 263.389 38.8821 262.843 39.7522C263.232 38.052 263.943 36.5519 264.761 35.0352C265.912 32.4666 266.549 31.6341 266.07 28.9171C265.565 27.8675 264.951 27.6717 263.523 27.5028C262.303 27.3956 260.317 27.7393 258.062 27.555C256.435 27.4097 254.657 26.9409 255.28 26.1007C258.216 26.2317 260.598 25.753 262.657 24.4337Z" fill="white"/>
<path d="M271.784 9.63687C273.077 10.6903 273.409 11.3691 273.752 12.2549C271.587 13.0432 270.089 14.065 268.48 15.4605C267.416 15.4385 267.099 15.4957 266.347 15.6083C267.998 13.4943 270.268 10.7328 271.784 9.63687Z" fill="#F18C0C"/>
<path d="M262.124 22.7952C263.092 21.152 263.403 21.3649 265.215 20.9022C264.3 21.5733 263.768 23.2371 262.124 22.7952Z" fill="white"/>
</g>
<defs>
<clipPath id="clip0_143_11293">
<rect width="312" height="60.4242" fill="white"/>
</clipPath>
</defs>
</svg>
