<svg width="642" height="440" viewBox="0 0 642 440" fill="none" xmlns="http://www.w3.org/2000/svg">
<mask id="mask0_156_13106" style="mask-type:luminance" maskUnits="userSpaceOnUse" x="0" y="0" width="642" height="440">
<path d="M0 0L0 440L642 440V0L0 0Z" fill="white"/>
</mask>
<g mask="url(#mask0_156_13106)">
<path d="M-90.1973 219.999V265.476L320.75 219.999L-90.1973 174.522V219.999Z" fill="white"/>
<path d="M-35.143 360.823L-1.96449 400.207L320.748 220L-68.3203 321.438L-35.143 360.823Z" fill="white"/>
<path d="M115.274 463.912L172.738 486.65L320.747 220L57.8086 441.174L115.274 463.912Z" fill="white"/>
<path d="M320.75 501.646H387.105L320.75 220L254.395 501.646H320.75Z" fill="white"/>
<path d="M526.223 463.912L583.688 441.174L320.75 220L468.758 486.65L526.223 463.912Z" fill="white"/>
<path d="M676.64 360.823L709.817 321.438L320.75 220L643.463 400.207L676.64 360.823Z" fill="white"/>
<path d="M731.697 219.999V174.522L320.75 219.999L731.697 265.476V219.999Z" fill="white"/>
<path d="M676.64 79.1761L643.463 39.7917L320.75 219.999L709.817 118.561L676.64 79.1761Z" fill="white"/>
<path d="M526.223 -23.9132L468.758 -46.6516L320.75 219.999L583.688 -1.17492L526.223 -23.9132Z" fill="white"/>
<path d="M320.75 -61.6468H254.395L320.75 219.999L387.105 -61.6468H320.75Z" fill="white"/>
<path d="M115.274 -23.9132L57.8086 -1.17492L320.747 219.999L172.738 -46.6516L115.274 -23.9132Z" fill="white"/>
<path d="M-35.143 79.1761L-68.3203 118.561L320.748 219.999L-1.96449 39.7917L-35.143 79.1761Z" fill="white"/>
</g>
</svg>
