<svg width="216" height="72" viewBox="0 0 216 72" fill="none" xmlns="http://www.w3.org/2000/svg">
<g clip-path="url(#clip0_142_11283)">
<path fill-rule="evenodd" clip-rule="evenodd" d="M33.1714 0.718559C17.5606 1.92898 4.63288 13.3133 1.4328 28.6681C1.36776 28.98 1.32921 29.2497 1.34716 29.2677C1.36483 29.2857 1.71123 29.1432 2.11679 28.9508C2.52236 28.7587 3.1569 28.4619 3.52715 28.2913C3.8974 28.1205 4.41333 27.8806 4.67409 27.7581C4.93456 27.6354 5.59765 27.3267 6.14743 27.072C6.6975 26.8171 7.36059 26.5084 7.62106 26.386C7.88153 26.2635 8.54462 25.9552 9.09469 25.7008C9.64447 25.4464 10.3314 25.1257 10.6207 24.9885C10.9103 24.851 11.597 24.5302 12.147 24.2755C12.6968 24.0206 13.3599 23.7119 13.6204 23.5895C13.8811 23.4673 14.5678 23.1469 15.1467 22.8777C15.7256 22.6083 16.8978 22.0618 17.7517 21.6632C18.6055 21.2645 19.9555 20.6354 20.7513 20.2648C21.5474 19.8945 22.8972 19.2654 23.751 18.8667C24.6051 18.468 25.7773 17.9216 26.3562 17.6527C26.9351 17.3836 27.6218 17.0635 27.8823 16.941C28.1427 16.8185 28.8296 16.4981 29.4086 16.2287C30.3804 15.7769 33.1458 14.4883 33.8818 14.1445C34.0555 14.0633 34.7065 13.7597 35.329 13.4699C35.9512 13.1802 37.159 12.6172 38.0128 12.2185C38.8666 11.8198 40.2167 11.1907 41.0125 10.8201C41.8086 10.4498 43.1583 9.82066 44.0124 9.42201C44.8663 9.02335 46.216 8.39424 47.0121 8.02361C47.8079 7.65329 49.004 7.09558 49.6698 6.78427C50.3355 6.47325 51.3656 5.99345 51.9589 5.71784C52.5523 5.44253 53.0582 5.20469 53.0829 5.18936C53.1374 5.15601 52.7827 4.96007 51.4854 4.30499C45.9484 1.51086 39.4264 0.23374 33.1714 0.718559ZM62.6949 14.8005C61.7937 15.2053 61.0235 15.5473 57.932 16.9147C57.2954 17.1965 56.1644 17.6976 55.4192 18.0284C52.2429 19.4377 51.3159 19.849 50.6695 20.1344C50.2934 20.3005 48.8486 20.9408 47.4595 21.5573C44.8518 22.714 43.1466 23.4694 41.1441 24.3552C40.5075 24.6367 39.063 25.2773 37.934 25.779C36.8053 26.2803 35.467 26.8737 34.9605 27.0974C34.454 27.3214 33.5422 27.7253 32.9344 27.9951C32.3267 28.2648 31.4267 28.6637 30.9346 28.8815C27.0399 30.6054 25.1766 31.431 23.6459 32.1109C22.9078 32.4387 21.9012 32.8849 21.4091 33.1023C20.2404 33.619 17.2519 34.9428 16.7669 35.1591C16.5582 35.252 16.4043 35.3417 16.4249 35.3582C16.4617 35.388 16.7221 35.5081 17.9094 36.0425C18.632 36.3677 19.4028 36.7153 20.0146 36.9921C20.2607 37.1034 23.3392 38.492 26.856 40.0781C30.3727 41.6644 33.4516 43.0531 33.6976 43.1646C34.3313 43.4515 35.1795 43.8345 36.0657 44.234C37.0843 44.6931 39.7287 45.8876 40.5916 46.2783C41.0048 46.4654 51.4274 51.1676 53.8272 52.2496C55.33 52.9271 55.6682 53.0803 56.6427 53.5235C57.4226 53.8785 59.4242 54.7802 62.1684 56.0131C62.7041 56.2536 63.3286 56.536 63.5567 56.6404C64.1006 56.8904 64.0332 56.9214 64.5459 56.1842C72.6648 44.5132 73.1655 29.5507 65.8403 17.4951C65.2128 16.4624 63.7524 14.3407 63.6818 14.3593C63.6744 14.3616 63.2303 14.56 62.6949 14.8005ZM1.1744 41.575C1.1744 41.9108 1.65148 44.0983 1.9923 45.3252C5.64651 58.4758 16.6868 68.4242 30.0664 70.6229C33.5187 71.19 37.5261 71.2287 40.9336 70.7276C45.3369 70.0799 49.318 68.7037 53.2878 66.4569C53.7292 66.207 53.7342 66.23 53.1824 65.9706C52.9293 65.8514 52.2365 65.5247 51.6431 65.2441C51.0498 64.9638 50.4223 64.6681 50.2487 64.5876C50.075 64.5067 48.6897 63.8534 47.1698 63.136C45.6503 62.4184 44.2058 61.7365 43.9598 61.6208C43.7137 61.5048 42.9085 61.1245 42.1703 60.7757C41.4322 60.4269 40.639 60.0524 40.4074 59.9438C39.3708 59.4578 38.3622 58.9828 37.8286 58.7296C37.5105 58.5782 37.0604 58.3654 36.8288 58.2566C35.8738 57.8077 34.572 57.194 32.9083 56.4085C31.3266 55.6619 30.2571 55.1579 28.9874 54.5604C28.7558 54.4515 28.3414 54.2555 28.0665 54.1251C27.5091 53.8607 25.951 53.1254 25.3035 52.8215C25.0721 52.7128 23.6865 52.0596 22.2249 51.3699C20.7634 50.6803 19.3542 50.0155 19.0937 49.8931C18.644 49.6815 17.8102 49.2881 14.6731 47.8074C13.9206 47.4521 13.1153 47.073 12.8837 46.9647C12.6521 46.8564 11.8589 46.4822 11.1208 46.1334C10.3826 45.7843 8.97344 45.1189 7.98954 44.6545C7.00536 44.19 5.58441 43.5193 4.83184 43.164C4.07928 42.8087 3.30965 42.4464 3.12158 42.359C2.93322 42.2717 2.43848 42.0374 2.02144 41.8382C1.18264 41.4378 1.1744 41.4352 1.1744 41.575ZM61.5624 90.0983C61.5624 93.5516 61.5689 94.9568 61.5765 93.2205C61.5842 91.4843 61.5842 88.6589 61.5765 86.9415C61.5689 85.2244 61.5624 86.6449 61.5624 90.0983ZM-4.69541 86.616C-4.69541 88.1251 -4.68862 88.7347 -4.6804 87.971C-4.67217 87.2071 -4.67217 85.9724 -4.6804 85.2271C-4.68863 84.482 -4.69541 85.107 -4.69541 86.616ZM76.8241 90.0983C76.8241 93.5227 76.8305 94.9158 76.8382 93.1943C76.8459 91.4725 76.8459 88.6707 76.8382 86.968C76.8305 85.2654 76.8241 86.6739 76.8241 90.0983ZM-4.69629 94.5832C-4.69629 95.5411 -4.68928 95.94 -4.68039 95.4705C-4.67183 95.0008 -4.67183 94.217 -4.68039 93.7293C-4.68918 93.2412 -4.69629 93.6256 -4.69629 94.5832Z" fill="#04549B"/>
</g>
<path d="M85.8358 47V25.1818H91.1093V34.4077H91.3969L98.6093 25.1818H104.82L97.0858 34.919L104.959 47H98.6519L93.2187 38.424L91.1093 41.0874V47H85.8358ZM111.62 47H105.952L113.314 25.1818H120.334L127.696 47H122.028L116.904 30.679H116.733L111.62 47ZM110.863 38.4134H122.71V42.419H110.863V38.4134ZM130.045 47V25.1818H135.318V42.7173H144.395V47H130.045ZM142.669 25.1818H148.56L153.173 34.3118H153.365L157.978 25.1818H163.869L155.89 39.7131V47H150.649V39.7131L142.669 25.1818ZM168.573 47H162.905L170.267 25.1818H177.287L184.649 47H178.981L173.857 30.679H173.687L168.573 47ZM167.816 38.4134H179.663V42.419H167.816V38.4134ZM205.567 25.1818V47H201.092L192.41 34.4077H192.271V47H186.998V25.1818H191.536L200.123 37.7528H200.304V25.1818H205.567ZM214.156 25.1818V47H208.883V25.1818H214.156Z" fill="#1C1C14"/>
<defs>
<clipPath id="clip0_142_11283">
<rect width="72" height="72" fill="white"/>
</clipPath>
</defs>
</svg>
