<svg width="30" height="36" viewBox="0 0 30 36" fill="none" xmlns="http://www.w3.org/2000/svg">
<path d="M29.5538 17.7492C28.6881 13.6439 24.5551 10.0692 20.2831 10.7395C19.948 9.09235 20.4507 7.94707 20.4507 7.94707C20.4507 7.94707 22.07 7.86283 22.9357 7.30453C23.8014 6.74623 24.1366 4.76394 23.2942 3.92604C22.6588 3.29067 19.3413 3.10517 15.0218 3.18583C10.7033 3.10517 7.38483 3.29067 6.74946 3.92604C5.91156 4.76394 6.24672 6.74623 7.10792 7.30453C7.96912 7.86283 9.59294 7.94707 9.59294 7.94707C9.59294 7.94707 10.0957 9.09235 9.76052 10.7395C5.48858 10.0692 1.35554 13.6439 0.489855 17.7492C-0.375826 21.8544 2.58416 27.0476 5.29322 29.7289C7.47713 31.8904 11.241 35.0314 15.0173 34.9669C18.7946 35.0314 22.5575 31.8904 24.7424 29.7289C27.464 27.0476 30.4213 21.8535 29.5538 17.7492Z" fill="#BAD2E6"/>
<path d="M17.6389 1.6014C17.4015 1.14003 17.0193 0.769217 16.551 0.54574C15.8852 0.231191 15.1172 0.24553 14.3805 0.266141C13.7532 0.284064 13.0524 0.329767 12.6133 0.78053C12.1742 1.23129 12.1446 1.89265 12.1294 2.50382L12.443 3.14726L17.8576 3.10066C17.9511 2.59045 17.8743 2.06365 17.6389 1.6014Z" fill="#8C572F"/>
<path d="M17.2675 7.87L12.6201 7.94796C12.4534 8.2168 12.5072 8.58423 12.6981 8.83605C12.9024 9.08239 13.1888 9.2466 13.5046 9.29846C13.8168 9.34866 14.1339 9.3613 14.4491 9.3361L16.4852 9.25365C16.754 9.2429 17.0399 9.22229 17.2299 9.03768C17.3 8.96144 17.3532 8.87127 17.3861 8.77306C17.419 8.67485 17.4308 8.57081 17.4208 8.46773C17.3988 8.26213 17.3472 8.06079 17.2675 7.87Z" fill="#8C572F"/>
<path d="M15.6171 0.702554C15.0471 0.355744 13.7549 0.595015 13.1858 0.835183C12.6168 1.07535 12.3712 1.5288 12.1283 2.1122C12.0387 2.321 12.2063 2.50561 12.3972 2.55489H12.3811C12.4457 2.57779 12.5163 2.57779 12.5809 2.55489L12.6033 2.54683H12.6185C12.6475 2.53539 12.6744 2.51935 12.6983 2.49933C12.7115 2.49 12.7235 2.47918 12.7341 2.46707C13.1007 2.05395 13.4797 1.76987 14.0174 1.61573C14.5551 1.46159 15.2263 1.55569 15.6771 1.18737C15.8384 1.05743 15.7721 0.79665 15.6171 0.702554Z" fill="#D5B381"/>
<path d="M17.7741 2.16871C17.769 2.08345 17.7408 2.00117 17.6925 1.93075C17.6442 1.86032 17.5776 1.80441 17.4998 1.76903C17.5052 1.66132 17.4721 1.55521 17.4064 1.46968C17.3408 1.38414 17.2468 1.32476 17.1414 1.30213C17.0914 1.28961 17.0385 1.29689 16.9937 1.32243C16.949 1.34798 16.9158 1.38983 16.9012 1.43924C16.8116 1.70808 16.7623 1.8685 16.4406 1.8918C16.144 1.91331 15.8769 1.80218 15.5803 1.88731C15.1457 2.01636 14.6841 2.57287 14.9019 3.02274C14.9664 3.15627 15.125 3.18853 15.2604 3.16702C15.3624 3.14832 15.4543 3.09362 15.5193 3.01288C16.3259 3.15985 17.8834 3.48067 17.7741 2.16871Z" fill="#592710"/>
<path d="M17.0832 7.89959C16.7247 7.84851 16.4559 7.92737 16.1064 8.00085C15.7155 8.0734 15.3192 8.11297 14.9217 8.11915C14.5973 8.13169 14.272 8.14603 13.9476 8.13169C13.5963 8.11646 13.2602 7.98472 12.9116 7.99458C12.6643 8.00085 12.4214 8.31002 12.598 8.54213C12.6638 8.62815 12.7416 8.70422 12.8292 8.76796C12.8145 8.853 12.8306 8.94049 12.8747 9.01473C12.9187 9.08896 12.9877 9.14508 13.0693 9.17302C14.4458 9.76358 15.9711 9.65246 17.1916 8.7581C17.4757 8.5493 17.5277 7.96053 17.0832 7.89959Z" fill="#592710"/>
<path d="M11.9258 11.1867C12.3219 11.3005 12.7252 11.3973 13.1141 11.538C13.6921 11.7468 14.2791 11.9484 14.8948 12.0022C15.4961 12.0551 16.066 11.9126 16.6199 11.6885C16.9048 11.5738 17.1844 11.4457 17.4694 11.3301C17.7051 11.2405 17.9515 11.1795 18.1917 11.1042C18.4364 11.1293 18.6953 10.9877 18.6676 10.6983C18.6717 10.6493 18.6662 10.6 18.6514 10.5531C18.5941 10.0441 18.5941 9.53957 19.0036 9.15691C19.3719 8.81369 19.8899 8.88269 20.2528 8.58068C20.2995 8.53268 20.3256 8.46839 20.3256 8.40145C20.3256 8.33452 20.2995 8.27023 20.2528 8.22222C20.0234 7.98295 19.6874 7.96682 19.3504 8.05644C19.3309 8.02864 19.3034 8.0074 19.2716 7.9955C18.9929 7.88348 18.6443 7.93994 18.3512 7.9498C18.0469 7.96674 17.7436 7.99904 17.4425 8.04658C17.3529 8.05913 17.3529 8.15143 17.3986 8.20699C17.3499 8.24716 17.3099 8.29677 17.281 8.35283C17.252 8.4089 17.2347 8.47026 17.2301 8.53319C17.2212 8.62565 17.2053 8.71731 17.1826 8.80741C17.1026 8.82758 17.0318 8.87435 16.9819 8.94004C16.9407 8.99291 16.8923 9.0431 16.852 9.09239C16.8279 9.09722 16.8042 9.10381 16.7812 9.11211L16.5795 9.1838C15.6072 9.50283 14.5937 9.43562 13.5828 9.31912C13.5136 9.31009 13.4433 9.32 13.3794 9.34779C13.0747 9.11431 12.8119 8.83066 12.6024 8.50899C12.8892 8.25807 12.6159 7.75533 12.2565 7.9713C12.192 8.00984 12.1284 8.04389 12.0638 8.07615C11.8308 7.84584 11.0539 7.97489 10.7599 8.01701C10.4059 7.92022 10.043 7.94263 9.7661 8.18728C9.74212 8.21155 9.72397 8.24096 9.71303 8.27328C9.7021 8.3056 9.69866 8.33999 9.70298 8.37383C9.7073 8.40768 9.71925 8.4401 9.73795 8.46864C9.75665 8.49718 9.7816 8.52109 9.81091 8.53857C10.259 8.75812 10.7555 8.70346 11.1103 9.11569C11.4652 9.52792 11.4365 10.0181 11.3595 10.5074C11.3107 10.5279 11.2691 10.5624 11.2398 10.6065C11.2105 10.6505 11.1949 10.7023 11.1949 10.7552C11.1949 10.8081 11.2105 10.8598 11.2398 10.9039C11.2691 10.948 11.3107 10.9825 11.3595 11.003C11.4108 11.1019 11.499 11.1766 11.6049 11.211C11.7109 11.2454 11.8262 11.2367 11.9258 11.1867Z" fill="#6795B8"/>
<path d="M25.0911 18.2053C24.8048 17.6175 24.4466 17.0675 24.0247 16.568C23.6438 16.1128 23.0766 15.5491 22.4546 15.9604C21.9707 16.2795 21.8408 17.0188 21.5522 17.4911C21.2021 18.0656 20.7394 18.5634 20.1919 18.9545C19.6355 19.3504 18.9956 19.6132 18.3216 19.7225C17.6127 19.839 16.8949 19.7628 16.1941 19.9268C15.876 20.0012 15.9253 20.4286 16.1941 20.5254C16.9854 20.8086 17.9282 20.7943 18.793 20.5908C18.8506 20.6841 18.9422 20.7512 19.0484 20.7781C19.3391 20.8426 19.6398 20.8483 19.9329 20.7952C19.9718 20.8603 20.0257 20.9152 20.09 20.9554C20.1544 20.9956 20.2274 21.0199 20.303 21.0264C21.8208 21.1868 23.3157 21.5174 24.7595 22.0121C24.8509 22.0434 24.9506 22.0405 25.04 22.0041L25.0589 22.1618C25.1037 22.548 25.6942 22.7111 25.7955 22.2622C26.093 20.9135 25.6772 19.4205 25.0911 18.2053Z" fill="#6795B8"/>
<path d="M22.4984 28.0369C22.0781 28.2099 21.8227 28.6436 21.535 28.9841C21.1917 29.3929 20.8277 29.7838 20.4444 30.1554C19.8405 30.7371 19.1801 31.2571 18.4729 31.7075C18.4278 31.6792 18.3755 31.6646 18.3223 31.6654C17.8124 31.6654 17.3169 31.9818 16.8401 32.1368C16.3066 32.3104 15.7511 32.4067 15.1903 32.4227C14.6195 32.4397 14.0818 32.3456 13.5243 32.2434C13.4043 32.221 13.035 32.1538 12.8074 32.2291C12.475 32.0078 12.1075 31.7604 11.7383 31.7963C11.7 31.7973 11.6624 31.8069 11.6282 31.8244C11.5941 31.8419 11.5643 31.8668 11.5411 31.8973C11.5178 31.9279 11.5018 31.9632 11.494 32.0008C11.4863 32.0383 11.4871 32.0772 11.4964 32.1144C11.5922 32.6521 12.2841 33.0204 12.7169 33.2731C13.2327 33.5844 13.7994 33.8022 14.3909 33.9166C15.6733 34.1397 16.8679 33.6612 17.9872 33.076C19.0178 32.5357 19.9742 31.8643 20.8325 31.0785C21.286 30.6689 21.7056 30.2232 22.0871 29.7459C22.3962 29.3561 22.8775 28.8435 22.8748 28.3201C22.8694 28.1525 22.6794 27.9616 22.4984 28.0369Z" fill="#6795B8"/>
<path d="M17.7937 6.46577C18.2606 6.75702 18.8691 6.70236 19.4068 6.70146C19.9445 6.70057 20.5718 6.76509 21.0127 6.43262C21.183 6.30357 21.2197 6.04727 21.0127 5.92539C20.5333 5.64221 19.9373 5.75333 19.4068 5.76319C18.8763 5.77305 18.2875 5.69778 17.7937 5.95318C17.5894 6.05713 17.6136 6.35107 17.7937 6.46577Z" fill="#6795B8"/>
<path d="M4.56938 22.5964C6.32136 20.529 11.6337 20.8158 15.4818 20.8158C19.3299 20.8158 24.1538 20.7584 25.6182 23.0848C27.0825 25.4112 18.8988 32.2748 14.8787 32.2748C10.8586 32.2748 3.1911 25.4372 4.56938 22.5964Z" fill="#F0357D"/>
<path d="M24.9458 22.3419C24.9434 22.2428 24.9097 22.147 24.8495 22.0683C24.7893 21.9895 24.7056 21.9319 24.6106 21.9037C24.5952 21.8462 24.5685 21.7924 24.532 21.7453C24.4956 21.6983 24.4501 21.659 24.3983 21.6297C24.3465 21.6004 24.2894 21.5818 24.2303 21.5748C24.1712 21.5678 24.1113 21.5727 24.0541 21.5891L23.5603 21.7146C23.5185 21.6187 23.4444 21.5405 23.3509 21.4936C23.2575 21.4466 23.1505 21.4338 23.0486 21.4574C23.0122 21.3462 22.9353 21.2528 22.8332 21.1957C22.7311 21.1386 22.6113 21.1219 22.4975 21.1491C22.2036 21.2148 21.9102 21.2815 21.6175 21.349C21.5832 21.2753 21.526 21.2146 21.4545 21.176C21.383 21.1374 21.3009 21.123 21.2205 21.1348C21.0753 21.1527 20.9301 21.1715 20.7849 21.1912C20.7513 21.1168 20.6947 21.055 20.6234 21.015C20.5522 20.975 20.47 20.9589 20.3889 20.969C20.1326 20.9986 19.878 21.0335 19.6226 21.0703C19.5676 21.0144 19.4997 20.9729 19.4248 20.9496C19.3499 20.9263 19.2704 20.9219 19.1934 20.9367C19.0052 20.969 18.817 21.0031 18.6288 21.0371C18.5911 20.9729 18.535 20.9215 18.4677 20.8895C18.4004 20.8576 18.3251 20.8465 18.2515 20.8579C17.9002 20.9 17.5498 20.9475 17.2012 21.0057C17.1624 20.8944 17.0851 20.8006 16.9832 20.7411C16.8814 20.6817 16.7617 20.6605 16.6456 20.6813C16.1277 20.762 15.6136 20.8573 15.1034 20.9672C15.0068 20.9284 14.9003 20.9215 14.7996 20.9475L14.6087 20.9923C14.6006 20.7629 14.4563 20.5577 14.1606 20.5953L14.036 20.6132C13.6638 20.6646 13.2949 20.727 12.9293 20.8005C12.2448 20.7909 11.5625 20.8794 10.9031 21.0631C9.94167 21.0662 8.98227 21.1516 8.03542 21.3185C7.50973 21.4066 6.99013 21.5279 6.4797 21.6814C6.03163 21.8212 5.55667 21.9503 5.19104 22.2523C5.13042 22.2219 5.06233 22.2096 4.99491 22.2169C4.92749 22.2242 4.86359 22.2507 4.81085 22.2933C4.75811 22.3359 4.71876 22.3929 4.6975 22.4573C4.67625 22.5216 4.67399 22.5908 4.69099 22.6564C4.66167 22.6959 4.64046 22.7407 4.62862 22.7884C4.61677 22.8361 4.61452 22.8857 4.62199 22.9343C4.82362 24.3448 6.57469 24.4102 7.67606 24.4864C9.28913 24.5975 10.9103 24.6826 12.5296 24.7301C15.7045 24.8378 18.883 24.7534 22.0476 24.4774C23.27 24.3654 25.3078 24.2229 25.6708 22.7299C25.7801 22.2675 25.2469 22.0659 24.9458 22.3419Z" fill="#FC9ABF"/>
<path d="M11.0584 25.9722C10.7896 25.2983 7.70771 25.5725 8.06259 26.25C8.56443 27.2098 10.4589 28.9869 11.916 29.7817C12.5774 30.1402 13.0999 29.5021 12.84 29.141C12.1177 28.1623 11.5193 27.0979 11.0584 25.9722Z" fill="#FC9ABF"/>
<path d="M22.3227 27.234C21.5099 27.5808 20.8629 28.2054 20.0196 28.5101C19.153 28.8237 18.2273 28.8632 17.3312 29.0083C16.4588 29.1371 15.6326 29.4828 14.9286 30.0138C14.5701 30.2827 14.2188 30.582 13.812 30.7764C13.3738 30.987 12.9436 30.9727 12.4678 30.9763C12.1864 30.9763 12.0197 31.3428 12.233 31.5436C12.3613 31.664 12.5131 31.7569 12.6788 31.8164C12.8445 31.8759 13.0206 31.9008 13.1963 31.8895C13.1766 32.0839 13.294 32.2882 13.5333 32.2721C13.8574 32.2458 14.1756 32.1703 14.4769 32.0481C14.5498 32.1395 14.6498 32.2054 14.7625 32.2363C14.8753 32.2672 14.9949 32.2616 15.1042 32.2201C15.3354 32.1186 15.5643 32.0131 15.7907 31.9038L15.8095 31.9208C15.8937 32.1431 16.1088 32.3178 16.3633 32.2166C16.7218 32.0738 17.0704 31.9193 17.4091 31.7532C18.549 31.2263 19.6495 30.616 20.5358 29.7047C20.7347 29.5332 20.9307 29.356 21.1237 29.1732C21.1792 29.1217 21.2203 29.0565 21.2429 28.9841C21.8702 28.6481 22.4374 28.1928 22.6946 27.5216C22.7869 27.2877 22.5011 27.1578 22.3227 27.234Z" fill="#A8144D"/>
<path d="M20.882 4.56859C21.3758 4.70391 21.8902 4.95035 22.1635 5.40559C22.4324 5.8447 22.3822 6.40749 21.9511 6.71756C21.5712 6.99088 21.098 7.04286 20.7315 7.34486C20.5899 7.46136 20.6894 7.6621 20.8292 7.71587C21.4403 7.94797 22.2388 7.7078 22.7111 7.27765C22.9901 7.02078 23.1734 6.67661 23.2308 6.30174C23.3475 6.33369 23.4721 6.31816 23.5774 6.25856C23.6827 6.19895 23.7601 6.1001 23.7927 5.98361C24.0428 5.16811 23.7121 4.19131 22.9934 3.71725C22.9547 3.69006 22.9109 3.6708 22.8648 3.66059C22.8186 3.65037 22.7708 3.6494 22.7242 3.65773C22.6777 3.66606 22.6332 3.68353 22.5934 3.70912C22.5536 3.73472 22.5193 3.76794 22.4924 3.80686C22.16 3.68409 21.7979 3.64555 21.5067 3.78625C20.8955 3.54518 19.9456 3.28261 19.4294 3.73158C19.3227 3.8212 19.3532 3.97713 19.4294 4.07391C19.7484 4.47897 20.4187 4.44313 20.882 4.56859Z" fill="white"/>
<path d="M18.3581 4.09365C18.4099 4.03947 18.4388 3.9674 18.4388 3.89246C18.4388 3.81752 18.4099 3.74547 18.3581 3.69128C18.0427 3.36956 17.6305 3.44036 17.2129 3.4529L15.891 3.49413L12.9651 3.58374L10.1342 3.67336C9.18784 3.70293 8.23702 3.6859 7.32564 3.96819C7.08189 4.04347 7.05679 4.41627 7.32564 4.48437C8.22179 4.70214 9.12511 4.63941 10.0392 4.61163L12.9651 4.52201L15.7969 4.4324L17.2129 4.38848C17.6251 4.37863 18.0651 4.4324 18.3581 4.09365Z" fill="white"/>
<path d="M27.3389 24.3385C26.9437 24.6074 26.7063 25.0671 26.4428 25.4587C26.1372 25.9068 25.8558 26.3782 25.5529 26.8316C25.2679 27.2582 24.9722 27.6785 24.6702 28.0943C24.4085 28.4527 23.9425 28.925 23.9936 29.3982C24.0053 29.5138 24.0895 29.6419 24.2239 29.6294C24.6962 29.5864 25.0107 29.1329 25.2868 28.7852C25.6309 28.3515 25.9553 27.9043 26.2672 27.4473C26.579 26.9902 26.8676 26.5386 27.1346 26.0636C27.3864 25.6155 27.7117 25.0778 27.7234 24.5581C27.727 24.3744 27.4994 24.2283 27.3389 24.3385Z" fill="white"/>
<path d="M29.21 17.0645C29.1797 17.0128 29.133 16.9728 29.0773 16.9507C29.0128 16.7463 28.9331 16.5501 28.865 16.3753C28.6659 15.848 28.4064 15.3455 28.0916 14.8779C27.7981 14.4694 27.4682 14.0885 27.1058 13.7398C27.1475 13.6556 27.1629 13.561 27.1501 13.468C27.1373 13.375 27.0969 13.288 27.0341 13.2182C26.2365 12.2665 24.9828 11.6822 23.808 11.3524C23.153 11.1772 22.4855 11.0526 21.8114 10.9796C21.1357 10.8981 20.3775 10.7466 19.7314 11.0199C19.6912 11.0369 19.6564 11.0644 19.6306 11.0996C19.6049 11.1348 19.5892 11.1764 19.5853 11.2198C19.0889 11.1893 18.2554 11.106 17.9884 11.563C17.9746 11.5862 17.9673 11.6127 17.9673 11.6396C17.9673 11.6666 17.9746 11.6931 17.9884 11.7163C18.2886 12.1124 19.001 12.0201 19.4473 12.0747C20.1073 12.1521 20.7602 12.2813 21.4 12.461C22.0139 12.6333 22.6099 12.864 23.1798 13.1501C23.4582 13.2917 23.7303 13.4458 23.9962 13.6125C24.2838 13.7917 24.5616 14.0498 24.9022 14.1117C24.9102 14.1121 24.9183 14.1121 24.9264 14.1117C25.292 14.5893 25.7535 14.9953 26.1407 15.4559C26.3551 15.711 26.5574 15.9754 26.7474 16.249C26.8755 16.4345 26.9741 16.6128 27.1417 16.7186C27.2313 17.1899 27.5655 17.647 27.7206 18.0915C27.9224 18.6619 28.0527 19.2552 28.1086 19.8578C28.1627 20.4337 28.1477 21.0141 28.0638 21.5864C27.9796 22.1385 27.7125 22.7335 27.8129 23.2891C27.8586 23.5436 28.1713 23.558 28.3344 23.4271C28.5773 23.23 28.7207 22.9208 28.8148 22.5901C28.8523 22.6003 28.8921 22.5993 28.9291 22.5874C28.9662 22.5755 28.999 22.5531 29.0236 22.5229C29.607 21.8571 29.5541 20.7091 29.5765 19.8721C29.6025 19.0118 29.6598 17.837 29.21 17.0645Z" fill="white"/>
<path d="M10.8336 13.0076C10.6627 12.9802 10.4903 12.9628 10.3174 12.9556C10.2293 12.9582 10.1434 12.9282 10.0761 12.8714C10.0087 12.8146 9.96461 12.735 9.9522 12.6478C9.93978 12.5606 9.95992 12.4719 10.0088 12.3986C10.0576 12.3253 10.1317 12.2725 10.217 12.2504C10.8273 12.0425 11.4376 11.8686 11.8301 11.813C12.1159 11.7727 12.0738 11.3444 11.8301 11.2753C11.2618 11.1212 10.6721 11.0607 10.0844 11.0961C10.0705 11.0386 10.0426 10.9855 10.0032 10.9414C9.9638 10.8973 9.91411 10.8636 9.85854 10.8434C9.07531 10.5333 8.02413 10.8264 7.24985 11.0576C6.35342 11.3394 5.49227 11.723 4.68328 12.2011C3.93932 12.6126 3.23205 13.0872 2.56925 13.6197C2.03963 14.0588 1.24743 14.7847 1.23847 15.5222C1.23588 15.5976 1.25619 15.6719 1.29672 15.7355C1.10697 16.0234 0.946655 16.3296 0.818184 16.6496C0.541973 17.3471 0.361113 18.0786 0.280494 18.8245C0.194093 19.6 0.211569 20.3836 0.332466 21.1545C0.43642 21.8427 0.607588 22.6968 1.16499 23.1637C1.19342 23.189 1.22724 23.2075 1.2639 23.2177C1.30055 23.228 1.33905 23.2297 1.37648 23.2228C1.6673 24.183 2.0653 25.1074 2.56298 25.9785C2.9354 26.6344 3.34781 27.2668 3.79788 27.872C4.23789 28.4671 4.66984 29.0899 5.27653 29.5192C5.59377 29.7432 5.89755 29.3211 5.76134 29.0335C5.47726 28.4312 5.0032 27.9348 4.61069 27.3971C4.21817 26.8594 3.8391 26.2993 3.50035 25.7213C2.81301 24.5464 2.28518 23.2847 2.02888 21.944C1.93927 21.4691 1.82098 20.84 1.8846 20.218C1.89047 20.1605 1.91661 20.1068 1.95838 20.0668C2.00015 20.0267 2.0548 20.0029 2.11257 19.9994C2.17034 19.996 2.22745 20.0132 2.27368 20.048C2.31992 20.0828 2.35227 20.1329 2.36494 20.1894C2.36453 20.1938 2.36453 20.1983 2.36494 20.2028C2.37957 20.253 2.40693 20.2986 2.44437 20.3352C2.48181 20.3717 2.52805 20.398 2.57862 20.4114C2.62919 20.4249 2.68237 20.425 2.73301 20.4119C2.78366 20.3987 2.83005 20.3727 2.86768 20.3363C3.15445 20.0343 3.2575 19.5665 3.41612 19.1884C3.45734 19.0925 3.51739 18.9661 3.58639 18.8299C3.69225 18.6118 3.85904 18.429 4.06659 18.3037C4.27413 18.1784 4.51354 18.1159 4.75586 18.1237C5.17257 18.1434 5.78644 17.9122 6.66197 17.2464C7.29914 16.7634 7.59218 16.232 7.69344 15.7606C7.76966 15.391 7.9439 15.0487 8.19791 14.7696C8.45192 14.4906 8.77633 14.285 9.13714 14.1744C9.76444 13.9862 10.4267 13.7873 10.83 13.6555C11.1167 13.5552 11.1786 13.0668 10.8336 13.0076Z" fill="white"/>
<path d="M7.77055 30.7514C7.32248 30.3714 6.82064 29.7827 6.20588 29.7217C6.02665 29.7038 5.93703 29.9009 5.95944 30.0443C6.04905 30.6645 6.79196 31.1591 7.24182 31.5257C7.69169 31.8922 8.28136 32.5365 8.88895 32.5195C8.93793 32.5189 8.98615 32.5072 9.02992 32.4852C9.0737 32.4632 9.1119 32.4315 9.14161 32.3926C9.17132 32.3536 9.19177 32.3084 9.20141 32.2604C9.21104 32.2123 9.20962 32.1627 9.19723 32.1153C9.01173 31.5185 8.22669 31.1349 7.77055 30.7514Z" fill="white"/>
<path d="M10.9365 17.077C10.7814 16.6523 10.3271 16.6075 9.96234 16.7786C9.09845 17.1846 8.4613 18.0494 8.0419 18.8792C7.83758 19.2834 7.55798 19.7942 7.53916 20.2539C7.52303 20.6572 7.84116 21.1258 8.27759 20.9206C8.2815 20.9188 8.28512 20.9164 8.28834 20.9135C8.3127 20.9194 8.33764 20.9227 8.36272 20.9233C8.81886 21.0452 9.48829 21.0291 9.93816 20.7826C9.95475 20.8199 9.97945 20.853 10.0105 20.8795C10.0415 20.906 10.078 20.9253 10.1174 20.9359C10.5448 21.0389 10.8773 20.6912 10.9983 20.3086C11.1659 19.7709 10.9203 19.2233 10.9266 18.6812C10.9311 18.1775 11.1139 17.5636 10.9365 17.077Z" fill="white"/>
<path d="M2.44611 21.2944C2.40937 21.7371 2.49182 22.2954 2.80457 22.6314C2.939 22.7775 3.24638 22.721 3.27954 22.506C3.34496 22.0892 3.22757 21.6098 3.13885 21.2012C3.05013 20.7925 2.47748 20.9207 2.44611 21.2944Z" fill="white"/>
<path d="M12.7994 12.8696C12.4571 12.8472 11.9292 12.8069 11.6917 13.1026C11.6489 13.1472 11.625 13.2066 11.625 13.2684C11.625 13.3302 11.6489 13.3896 11.6917 13.4342C11.9767 13.6914 12.4391 13.6134 12.7994 13.6223C13.0422 13.6223 13.5889 13.6716 13.5979 13.2961C13.6068 12.9207 13.0548 12.8857 12.7994 12.8696Z" fill="white"/>
<path d="M15.0006 9.84154C16.1817 9.84154 17.8611 9.43469 17.7186 8.21951C17.8414 8.19711 17.9642 8.17022 18.0905 8.13975C18.1276 8.1267 18.1598 8.10245 18.1825 8.07035C18.2053 8.03824 18.2175 7.99987 18.2175 7.96052C18.2175 7.92118 18.2053 7.8828 18.1825 7.8507C18.1598 7.81859 18.1276 7.79434 18.0905 7.78129C17.5232 7.64418 15.894 7.59131 15.0006 7.59131C14.1044 7.59131 12.4779 7.64418 11.9107 7.78129C11.8735 7.79434 11.8414 7.81859 11.8186 7.8507C11.7959 7.8828 11.7837 7.92118 11.7837 7.96052C11.7837 7.99987 11.7959 8.03824 11.8186 8.07035C11.8414 8.10245 11.8735 8.1267 11.9107 8.13975C12.0361 8.17022 12.1598 8.19711 12.2817 8.21951C12.1401 9.43469 13.8195 9.84154 15.0006 9.84154ZM13.2513 8.80738C13.0989 8.66692 12.9769 8.49674 12.8928 8.30733C13.1151 8.32884 14.1905 8.35483 14.9979 8.35483C15.8044 8.35483 16.8798 8.32884 17.103 8.30733C17.0185 8.49651 16.8965 8.66662 16.7445 8.80738C16.2516 9.21513 15.6431 9.17122 14.9961 9.17122C14.3527 9.17122 13.7442 9.21513 13.2513 8.80738Z" fill="#04070F"/>
<path d="M29.9196 18.0135C29.5988 15.8242 28.3495 13.6977 26.6728 12.2674C25.5437 11.3045 24.1766 10.6626 22.7145 10.4088C22.0166 10.2855 21.3081 10.2329 20.5996 10.252C20.5996 9.9634 20.5387 9.66409 20.5709 9.37553C20.6139 9.00273 20.803 8.638 20.8783 8.27058C21.4438 8.22756 22.0344 8.16035 22.5694 7.98112C23.6447 7.62266 24.1627 6.32235 24.177 5.26489C24.1914 4.20743 23.6232 3.48155 22.6061 3.2387C21.4617 2.96537 20.2465 2.92863 19.0762 2.87038C18.7972 2.85664 18.5184 2.84559 18.24 2.83722C18.2544 2.00022 18.2221 1.15694 17.542 0.56817C16.8761 -0.00895098 16.006 8.12386e-06 14.9996 8.12386e-06C13.9932 8.12386e-06 13.123 -0.00895098 12.4563 0.56817C11.7896 1.14529 11.7448 2.00201 11.7591 2.83722C11.4795 2.84618 11.2008 2.85724 10.923 2.87038C9.75172 2.92863 8.53654 2.96537 7.39216 3.2387C6.37592 3.48155 5.80866 4.19668 5.8221 5.26489C5.83554 6.3331 6.35262 7.61818 7.42979 7.98112C7.96748 8.16035 8.55536 8.22756 9.11994 8.27058C9.19522 8.638 9.38878 9.00273 9.42731 9.37553C9.46047 9.66409 9.40312 9.9634 9.39954 10.252C8.69108 10.2329 7.98251 10.2854 7.28461 10.4088C5.82246 10.663 4.45542 11.3052 3.32633 12.2683C1.65053 13.7021 0.400399 15.8251 0.0795772 18.0144C-0.117576 19.3658 0.079572 20.7593 0.365444 22.0829C0.688687 23.5738 1.2471 25.0037 2.01973 26.319C3.55036 28.9232 5.73518 31.1582 8.23185 32.8475C10.198 34.1792 12.4438 35.3737 14.9996 35.3737C17.5554 35.3737 19.8011 34.1792 21.7673 32.8475C24.264 31.1582 26.4488 28.9232 27.9785 26.319C28.7518 25.0039 29.3105 23.5739 29.6337 22.0829C29.9223 20.7584 30.1176 19.3649 29.9196 18.0135ZM13.072 1.21698C13.5774 0.816402 14.2154 0.882719 14.9969 0.882719C15.7783 0.882719 16.4155 0.816402 16.9209 1.21698C17.4013 1.59695 17.4514 2.23232 17.4129 2.81302C16.6064 2.7951 15.971 2.78972 14.9933 2.78972C14.0156 2.78972 13.3802 2.7951 12.5737 2.81302C12.5459 2.23232 12.5952 1.59695 13.0755 1.21698H13.072ZM27.5896 25.1827C26.2255 27.6811 24.3335 29.8524 22.0451 31.5454C20.0521 33.0267 17.5545 34.4677 14.9996 34.4677C12.4447 34.4677 9.94708 33.0267 7.95315 31.5454C5.66481 29.8526 3.77303 27.6813 2.40957 25.1827C1.19976 22.9423 0.268665 20.227 0.818901 17.6551C1.048 16.5993 1.48379 15.5993 2.10117 14.7128C2.71854 13.8263 3.50529 13.0707 4.41605 12.4896C5.4698 11.811 6.6622 11.3771 7.90565 11.2198C9.48198 11.0307 10.9642 11.399 12.5181 11.5666C12.8058 11.5971 12.9026 11.1589 12.6633 11.0289C11.9291 10.6539 11.1336 10.4135 10.3145 10.3192C10.3817 9.94548 10.3145 9.50547 10.2589 9.18196C10.2161 8.88852 10.1385 8.60122 10.0277 8.32614C10.3978 8.32614 10.7697 8.28133 11.0323 8.07343C11.0636 8.04217 11.0811 7.99978 11.0811 7.95558C11.0811 7.91138 11.0636 7.86899 11.0323 7.83774C10.5896 7.47928 9.80817 7.52498 9.26869 7.46046C8.72921 7.39593 8.07054 7.37085 7.57139 7.13426C6.78367 6.7534 6.44224 5.36795 6.76485 4.60264C7.0337 3.9601 8.04904 3.94128 8.63512 3.86959C10.7393 3.6097 12.7189 3.61866 15.0023 3.61866C17.2856 3.61866 19.2643 3.6097 21.3649 3.86959C21.951 3.94128 22.9664 3.9592 23.2352 4.60264C23.556 5.36795 23.2146 6.7534 22.4287 7.13426C21.9304 7.37353 21.2717 7.39504 20.7313 7.46046C20.191 7.52587 19.4113 7.48017 18.9686 7.83774C18.9374 7.86899 18.9198 7.91138 18.9198 7.95558C18.9198 7.99978 18.9374 8.04217 18.9686 8.07343C19.2312 8.28133 19.6022 8.32972 19.9732 8.32614C19.8622 8.6012 19.7843 8.88849 19.7411 9.18196C19.6873 9.50547 19.6192 9.94548 19.6855 10.3192C18.8663 10.4159 18.0711 10.6587 17.3376 11.0361C17.0993 11.1633 17.196 11.6016 17.4828 11.5738C19.0367 11.4044 20.5199 11.0361 22.0962 11.227C23.3378 11.3828 24.5288 11.8142 25.5822 12.4896C26.4929 13.0707 27.2795 13.8263 27.8967 14.7128C28.5139 15.5994 28.9496 16.5993 29.1785 17.6551C29.7314 20.227 28.7994 22.9397 27.5905 25.1827H27.5896Z" fill="#04070F"/>
<path d="M25.8297 14.7102C25.2176 14.1125 24.4855 13.4825 23.6789 13.1716C22.7729 12.8221 21.8866 12.7961 20.9484 13.0067C20.7978 13.0407 20.8453 13.2486 20.9833 13.2603C21.7936 13.34 22.5908 13.5206 23.3563 13.798C24.1951 14.0964 24.9613 14.3858 25.5913 15.04C26.1649 15.636 26.6613 16.3968 26.8621 17.2051C27.0574 17.9884 27.0933 18.7949 27.2913 19.5746C27.3325 19.7403 27.5485 19.7144 27.6014 19.5746C27.9141 18.7501 27.7036 17.7823 27.346 17.0008C26.9606 16.1557 26.5036 15.3689 25.8297 14.7102Z" fill="#04070F"/>
<path d="M22.2763 20.7485C19.8908 20.2852 17.576 20.2951 15.0005 20.2951C12.425 20.2951 10.1102 20.2852 7.72374 20.7485C6.46913 20.9914 4.1723 21.5819 3.96529 23.1332C3.78606 24.4774 4.91431 25.9265 5.67694 26.9149C6.90377 28.5038 8.49802 29.8776 10.1577 30.9906C10.9506 31.5292 11.7972 31.9842 12.6839 32.3483C14.1659 32.9553 15.827 32.9553 17.309 32.3483C18.1957 31.9842 19.0423 31.5292 19.8352 30.9906C21.4994 29.8776 23.0927 28.5038 24.316 26.9149C25.0795 25.9292 26.2077 24.4774 26.0276 23.1332C25.8287 21.5819 23.5282 20.9914 22.2763 20.7485ZM25.0329 24.2829C24.7587 24.9308 24.3482 25.5133 23.9037 26.0537C22.7432 27.4865 21.4005 28.7615 19.9096 29.8462C19.0982 30.4441 18.2273 30.9567 17.3108 31.376C16.5517 31.712 15.9495 31.9092 15.0005 31.9092C14.0515 31.9092 13.4492 31.712 12.6893 31.376C11.7728 30.9567 10.9019 30.4441 10.0905 29.8462C8.59996 28.761 7.25728 27.4861 6.09634 26.0537C5.64827 25.516 5.2423 24.9308 4.96718 24.2829C4.80498 23.9012 4.64636 23.3823 4.79781 23.0427C5.03529 22.505 5.76925 22.1886 6.30873 22.004C7.20488 21.7011 8.15569 21.5559 9.08679 21.443C11.0458 21.2064 12.7915 21.1742 15.0014 21.1742C17.2113 21.1742 18.9543 21.2047 20.916 21.443C21.8489 21.5559 22.8042 21.7011 23.694 22.004C24.2317 22.1886 24.9666 22.5094 25.204 23.0427C25.3537 23.3823 25.1951 23.9012 25.0329 24.2829Z" fill="#04070F"/>
<path d="M6.63945 13.8033C7.40528 13.526 8.20275 13.3453 9.01335 13.2656C9.15046 13.254 9.19796 13.0461 9.04741 13.012C8.11093 12.8014 7.22374 12.8274 6.31774 13.1769C5.5112 13.4879 4.78353 14.1179 4.16698 14.7156C3.49307 15.3734 3.03604 16.1602 2.64352 17.0107C2.28506 17.793 2.07537 18.7599 2.38723 19.5844C2.4401 19.7242 2.65607 19.7502 2.69819 19.5844C2.89624 18.8048 2.93119 17.9982 3.12655 17.215C3.32818 16.4084 3.82375 15.6458 4.39728 15.0499C5.03534 14.3912 5.80155 14.1018 6.63945 13.8033Z" fill="#04070F"/>
</svg>
