<svg width="310" height="74" viewBox="0 0 310 74" fill="none" xmlns="http://www.w3.org/2000/svg">
<g clip-path="url(#clip0_140_11236)">
<path d="M309.594 25.1214V20.76C309.594 20.0622 308.897 19.3644 308.2 19.3644H292.869V10.9906C292.869 10.2928 292.172 9.59497 291.475 9.59497H285.726C284.854 9.59497 284.332 10.2928 284.332 10.9906V19.3644H275.272C274.401 19.3644 273.878 20.0622 273.878 20.76V25.1214C273.878 25.8192 274.575 26.517 275.272 26.517H284.332V39.4266C284.332 49.3705 289.036 53.9063 298.967 53.9063H307.155C308.026 53.9063 308.549 53.2084 308.549 52.5106V48.1493C308.549 47.4515 307.852 46.7536 307.155 46.7536H300.36C294.959 46.7536 293.043 44.6602 293.043 39.2521V26.3425H308.375C308.897 26.3425 309.594 25.8192 309.594 25.1214Z" fill="#F26207"/>
<path d="M263.6 6.1059H255.76C254.888 6.1059 254.366 6.80371 254.366 7.50153V13.0841C254.366 13.7819 255.063 14.4797 255.76 14.4797H263.6C264.471 14.4797 264.993 13.7819 264.993 13.0841V7.50153C264.993 6.62926 264.296 6.1059 263.6 6.1059Z" fill="#F26207"/>
<path d="M264.645 46.9281V20.76C264.645 20.0622 263.948 19.3644 263.251 19.3644H245.48C244.609 19.3644 244.086 20.0622 244.086 20.76V25.1214C244.086 25.8192 244.783 26.517 245.48 26.517H255.934V46.9281H245.48C244.609 46.9281 244.086 47.6259 244.086 48.3237V52.6851C244.086 53.3829 244.783 54.0807 245.48 54.0807H275.447C276.318 54.0807 276.84 53.3829 276.84 52.6851V48.3237C276.84 47.6259 276.143 46.9281 275.447 46.9281H264.645Z" fill="#F26207"/>
<path d="M237.466 46.9281H228.406V7.50153C228.406 6.80371 227.709 6.1059 227.013 6.1059H209.416C208.545 6.1059 208.022 6.80371 208.022 7.50153V11.8629C208.022 12.5607 208.719 13.2585 209.416 13.2585H219.869V46.9281H208.197C207.325 46.9281 206.803 47.6259 206.803 48.3237V52.6851C206.803 53.3829 207.5 54.0807 208.197 54.0807H237.466C238.337 54.0807 238.86 53.3829 238.86 52.6851V48.3237C238.86 47.4515 238.337 46.9281 237.466 46.9281Z" fill="#F26207"/>
<path d="M189.729 18.6666C186.767 18.6666 184.502 19.3644 182.934 20.9345L180.844 22.8535H178.927L178.23 20.2367C178.056 19.7133 177.533 19.1899 176.836 19.1899H172.829C171.958 19.1899 171.436 19.8877 171.436 20.5856V65.7691C171.436 66.4669 172.132 67.1647 172.829 67.1647H178.579C179.45 67.1647 179.972 66.4669 179.972 65.7691V55.9997L179.276 50.7661L181.192 50.2427L183.283 52.1617C184.851 53.7318 186.941 54.4296 189.903 54.4296C198.44 54.4296 203.667 48.4982 203.667 36.4609C203.493 24.598 198.44 18.6666 189.729 18.6666ZM186.767 47.4515C182.412 47.4515 179.972 45.1836 179.972 40.9967V32.6229C179.972 28.436 182.412 26.1681 186.767 26.1681C192.168 26.1681 194.433 29.4827 194.433 36.8098C194.607 43.9624 192.168 47.4515 186.767 47.4515Z" fill="#F26207"/>
<path d="M146.87 18.6666C135.719 18.6666 129.796 24.598 129.796 36.6353C129.796 48.6726 135.719 54.6041 146.521 54.6041C154.884 54.6041 160.459 51.115 161.853 45.0091C162.027 44.1368 161.33 43.439 160.459 43.439H155.232C154.71 43.439 154.187 43.7879 153.839 44.3113C152.968 46.9281 150.354 48.1493 146.696 48.1493C141.12 48.1493 138.507 45.1836 138.159 38.0309H162.201C163.769 24.7724 158.368 18.6666 146.87 18.6666ZM138.681 32.6229C139.552 27.3893 142.166 24.9469 146.87 24.9469C151.922 24.9469 154.361 27.5637 154.361 32.6229H138.681Z" fill="#F26207"/>
<path d="M112.722 20.9345L110.806 22.8535H108.89L108.193 20.4111C108.018 19.7133 107.496 19.3644 106.799 19.3644H94.0806C93.2095 19.3644 92.6868 20.0622 92.6868 20.76V25.1214C92.6868 25.8192 93.3837 26.517 94.0806 26.517H101.572V46.9281H92.8611C91.99 46.9281 91.4673 47.6259 91.4673 48.3237V52.6851C91.4673 53.3829 92.1642 54.0807 92.8611 54.0807H120.214C121.085 54.0807 121.608 53.3829 121.608 52.6851V48.3237C121.608 47.6259 120.911 46.9281 120.214 46.9281H110.109V32.4484C110.109 28.436 112.548 26.3425 117.078 26.3425H124.57C125.441 26.3425 125.963 25.6447 125.963 24.9469V20.0622C125.963 19.3644 125.267 18.6666 124.57 18.6666H120.04C117.078 18.6666 114.465 19.3644 112.722 20.9345Z" fill="#F26207"/>
<path d="M0 4.5358C0 2.09345 2.09068 0 4.5298 0H25.785C28.2241 0 30.3148 2.09345 30.3148 4.5358V24.4235H4.5298C2.09068 24.4235 0 22.3301 0 19.8877V4.5358Z" fill="#F26207"/>
<path d="M30.4893 24.4236H56.4485C58.8876 24.4236 60.9783 26.517 60.9783 28.9594V44.3113C60.9783 46.7537 58.8876 48.8471 56.4485 48.8471H30.4893V24.4236Z" fill="#F26207"/>
<path d="M0 53.3829C0 50.9405 2.09068 48.8471 4.5298 48.8471H30.489V68.7348C30.489 71.1772 28.3983 73.2706 25.9592 73.2706H4.5298C2.09068 73.2706 0 71.1772 0 68.7348V53.3829Z" fill="#F26207"/>
</g>
<defs>
<clipPath id="clip0_140_11236">
<rect width="309.594" height="73.2706" fill="white"/>
</clipPath>
</defs>
</svg>
