<svg width="208" height="71" viewBox="0 0 208 71" fill="none" xmlns="http://www.w3.org/2000/svg">
<g filter="url(#filter0_d_1_1969)">
<path d="M9.77833 19H44C46.2091 19 48 20.7909 48 23V64C48 66.2091 46.2091 68 44 68H9.77833C6.19772 68 4.42084 63.6563 6.9749 61.1468L22.0312 46.3532C23.6266 44.7856 23.6266 42.2144 22.0312 40.6468L6.97491 25.8532C4.42084 23.3437 6.19772 19 9.77833 19Z" fill="#B30D78"/>
<path d="M9.77833 17H44C46.2091 17 48 18.7909 48 21V62C48 64.2091 46.2091 66 44 66H9.77833C6.19772 66 4.42084 61.6563 6.9749 59.1468L22.0312 44.3532C23.6266 42.7856 23.6266 40.2144 22.0312 38.6468L6.97491 23.8532C4.42084 21.3437 6.19772 17 9.77833 17Z" fill="url(#paint0_linear_1_1969)"/>
<path d="M198.222 19H164C161.791 19 160 20.7909 160 23V64C160 66.2091 161.791 68 164 68H198.222C201.802 68 203.579 63.6563 201.025 61.1468L185.969 46.3532C184.373 44.7856 184.373 42.2144 185.969 40.6468L201.025 25.8532C203.579 23.3437 201.802 19 198.222 19Z" fill="#B30D78"/>
<path d="M198.222 17H164C161.791 17 160 18.7909 160 21V62C160 64.2091 161.791 66 164 66H198.222C201.802 66 203.579 61.6563 201.025 59.1468L185.969 44.3532C184.373 42.7856 184.373 40.2144 185.969 38.6468L201.025 23.8532C203.579 21.3437 201.802 17 198.222 17Z" fill="url(#paint1_linear_1_1969)"/>
<path d="M48 62.5V53V50H36V50.5L48 62.5Z" fill="#B20D78"/>
<path d="M160 62.5001V53.0001V50.0001L172 48.5001C172 48.5001 172.5 47 172.5 48.5L160 62.5001Z" fill="#B20D78"/>
<rect x="32" y="2" width="143" height="51" rx="12" fill="#D71095"/>
<rect x="32" width="143" height="51" rx="12" fill="url(#paint2_linear_1_1969)"/>
</g>
<defs>
<filter id="filter0_d_1_1969" x="5.77029" y="0" width="196.459" height="71" filterUnits="userSpaceOnUse" color-interpolation-filters="sRGB">
<feFlood flood-opacity="0" result="BackgroundImageFix"/>
<feColorMatrix in="SourceAlpha" type="matrix" values="0 0 0 0 0 0 0 0 0 0 0 0 0 0 0 0 0 0 127 0" result="hardAlpha"/>
<feOffset dy="3"/>
<feComposite in2="hardAlpha" operator="out"/>
<feColorMatrix type="matrix" values="0 0 0 0 0.827451 0 0 0 0 0.847059 0 0 0 0 1 0 0 0 1 0"/>
<feBlend mode="normal" in2="BackgroundImageFix" result="effect1_dropShadow_1_1969"/>
<feBlend mode="normal" in="SourceGraphic" in2="effect1_dropShadow_1_1969" result="shape"/>
</filter>
<linearGradient id="paint0_linear_1_1969" x1="24" y1="17" x2="24" y2="66" gradientUnits="userSpaceOnUse">
<stop stop-color="#FE56E1"/>
<stop offset="1" stop-color="#D81091"/>
</linearGradient>
<linearGradient id="paint1_linear_1_1969" x1="184" y1="17" x2="184" y2="66" gradientUnits="userSpaceOnUse">
<stop stop-color="#FE56E1"/>
<stop offset="1" stop-color="#D81091"/>
</linearGradient>
<linearGradient id="paint2_linear_1_1969" x1="103.5" y1="0" x2="103.5" y2="51" gradientUnits="userSpaceOnUse">
<stop stop-color="#FFA4EB"/>
<stop offset="1" stop-color="#ED36CA"/>
</linearGradient>
</defs>
</svg>
