<svg width="304" height="80" viewBox="0 0 304 80" fill="none" xmlns="http://www.w3.org/2000/svg">
<g clip-path="url(#clip0_140_11271)">
<path d="M40 0C62.08 0 80 17.904 80 40C80 62.096 62.08 80 40 80C17.92 80 0 62.08 0 40C0 17.92 17.904 0 40 0Z" fill="black"/>
<path fill-rule="evenodd" clip-rule="evenodd" d="M18.4961 36.176H55.5201C55.9841 36.176 56.4161 36.352 56.7361 36.688L62.5921 42.576C63.6801 43.664 62.9121 45.52 61.3761 45.52H24.3521C23.8881 45.52 23.4561 45.344 23.1361 45.008L17.2801 39.12C16.1921 38.048 16.9601 36.176 18.4961 36.176ZM17.2641 28.368L23.1201 22.48C23.4561 22.144 23.8881 21.968 24.3361 21.968H61.3441C62.8801 21.968 63.6641 23.824 62.5601 24.912L56.7201 30.8C56.4001 31.136 55.9521 31.312 55.5041 31.312H18.4961C16.9601 31.312 16.1921 29.456 17.2641 28.368ZM62.5761 53.36L56.7201 59.264C56.4001 59.584 55.9521 59.776 55.5041 59.776H18.4961C16.9601 59.776 16.1921 57.92 17.2641 56.832L23.1201 50.928C23.4561 50.608 23.8881 50.416 24.3361 50.416H61.3441C62.8961 50.4 63.6801 52.256 62.5761 53.36Z" fill="url(#paint0_linear_140_11271)"/>
</g>
<g clip-path="url(#clip1_140_11271)">
<path d="M100.687 42.7584H112.349C113.987 42.7584 115.315 44.0962 115.315 45.7466C115.315 47.397 113.987 48.7349 112.349 48.7349H98.2833C98.0636 48.7349 97.8513 48.8138 97.6844 48.9577L93.4375 52.6185C92.7874 53.1788 93.1807 54.2516 94.0363 54.2516H111.645C111.652 54.2516 111.658 54.2456 111.658 54.2384C111.658 54.2307 111.664 54.2246 111.672 54.2251C111.893 54.2427 112.117 54.2516 112.343 54.2516C117.014 54.2516 120.801 50.4438 120.801 45.7466C120.801 41.2861 117.386 37.6276 113.042 37.2703C113.035 37.2696 113.029 37.2634 113.029 37.2559C113.029 37.2479 113.023 37.2416 113.015 37.2416H100.452C98.8138 37.2416 97.4859 35.9038 97.4859 34.2534C97.4859 32.603 98.8138 31.2651 100.452 31.2651H114.498C114.729 31.2651 114.952 31.1774 115.122 31.0196L119.066 27.3589C119.683 26.7862 119.281 25.7484 118.442 25.7484H100.687C100.687 25.7484 100.686 25.749 100.686 25.7498C100.686 25.7507 100.685 25.7514 100.684 25.7514C100.609 25.7494 100.533 25.7484 100.457 25.7484C95.7864 25.7484 92 29.5562 92 34.2534C92 38.9505 95.7864 42.7584 100.457 42.7584C100.533 42.7584 100.609 42.7573 100.684 42.7553C100.685 42.7553 100.686 42.756 100.686 42.7569C100.686 42.7577 100.687 42.7584 100.687 42.7584Z" fill="black"/>
<path fill-rule="evenodd" clip-rule="evenodd" d="M133.85 25.7484C133.848 25.7484 133.847 25.7495 133.847 25.7508C133.847 25.7522 133.846 25.7534 133.845 25.7534C131.115 25.8716 128.924 28.0679 128.806 30.803C128.806 30.8043 128.805 30.8054 128.803 30.8054C128.803 30.8054 128.802 30.8057 128.801 30.8063C128.801 30.8067 128.801 30.8073 128.801 30.8079V48.7325C128.801 48.7338 128.802 48.7349 128.803 48.7349C128.805 48.7349 128.806 48.736 128.806 48.7373C128.802 48.8127 128.801 48.8885 128.801 48.9647C128.801 51.8068 131.039 54.125 133.845 54.2466C133.846 54.2466 133.847 54.2478 133.847 54.249L133.847 54.2502L133.848 54.251C133.848 54.2514 133.849 54.2516 133.85 54.2516H153.225C153.226 54.2516 153.228 54.2505 153.228 54.249V54.2476L153.229 54.2469L153.231 54.2466C156.037 54.125 158.274 51.8068 158.274 48.9647C158.274 48.8885 158.273 48.8127 158.27 48.7373C158.27 48.736 158.271 48.7349 158.271 48.7349C158.273 48.7349 158.274 48.7338 158.274 48.7325V30.8079C158.274 30.8066 158.273 30.8054 158.271 30.8054C158.27 30.8054 158.27 30.8043 158.27 30.803C158.151 28.0679 155.96 25.8716 153.231 25.7534C153.229 25.7534 153.228 25.7522 153.228 25.7508C153.228 25.7495 153.226 25.7484 153.225 25.7484H133.85ZM137.461 30.8054L137.46 30.806V30.807C137.46 30.8079 137.46 30.8086 137.458 30.8086C135.752 30.883 134.383 32.2645 134.309 33.985C134.309 33.9857 134.308 33.9864 134.307 33.9864C134.307 33.9864 134.306 33.9871 134.306 33.9879V45.2632C134.306 45.264 134.307 45.2646 134.307 45.2646C134.308 45.2646 134.309 45.2653 134.309 45.2661C134.307 45.3137 134.306 45.3613 134.306 45.4093C134.306 47.197 135.704 48.6553 137.458 48.7316C137.46 48.7318 137.46 48.7325 137.46 48.7332V48.7342L137.461 48.7346V48.7349H149.614V48.7348L149.616 48.7341V48.7332C149.616 48.7325 149.616 48.7318 149.617 48.7316C151.371 48.6553 152.77 47.197 152.77 45.4093C152.77 45.3613 152.768 45.3137 152.767 45.2661V45.2659V45.2654L152.768 45.2646C152.768 45.2646 152.77 45.264 152.77 45.2632V33.9879C152.77 33.9871 152.768 33.9864 152.768 33.9864C152.767 33.9864 152.767 33.9857 152.767 33.985C152.692 32.2645 151.323 30.883 149.617 30.8086C149.616 30.8086 149.616 30.8079 149.616 30.807V30.8062L149.614 30.8056V30.8054H137.461Z" fill="black"/>
<path d="M167.198 25.7484C166.687 25.7484 166.274 26.1638 166.274 26.6763V53.3237C166.274 53.8361 166.687 54.2516 167.198 54.2516H188.551C188.806 54.2516 189.051 54.1454 189.225 53.9583L191.898 51.0921C192.451 50.4994 192.032 49.5295 191.224 49.5295H172.579C172.07 49.5295 171.657 49.1139 171.657 48.6014V26.6763C171.657 26.1638 171.243 25.7484 170.734 25.7484H167.198Z" fill="black"/>
<path fill-rule="evenodd" clip-rule="evenodd" d="M223.754 53.3237C223.754 53.8361 224.164 54.2516 224.669 54.2516H228.291C228.796 54.2516 229.206 53.8361 229.206 53.3237V31.2675C229.206 31.2662 229.205 31.2651 229.203 31.2651V31.2648L229.202 31.2645C229.202 31.264 229.202 31.2634 229.202 31.2626C229.205 31.1872 229.206 31.1114 229.206 31.0353C229.206 28.1932 226.99 25.875 224.211 25.7534C224.209 25.7534 224.208 25.7522 224.208 25.7508C224.208 25.7495 224.206 25.7484 224.205 25.7484H205.604C205.603 25.7484 205.601 25.7494 205.601 25.7508C205.601 25.7521 205.6 25.7532 205.598 25.7532C205.525 25.75 205.45 25.7484 205.375 25.7484C202.488 25.7484 200.149 28.1154 200.149 31.0353C200.149 31.1114 200.15 31.1872 200.153 31.2626C200.153 31.264 200.153 31.2651 200.152 31.2651C200.15 31.2651 200.149 31.2662 200.149 31.2675V53.3237C200.149 53.8361 200.559 54.2516 201.064 54.2516H204.686C205.191 54.2516 205.601 53.8361 205.601 53.3237V44.1461C205.601 43.6336 206.011 43.2181 206.516 43.2181H222.837C223.344 43.2181 223.754 43.6336 223.754 44.1461V53.3237ZM205.601 38.1525V33.5638C205.601 31.7864 207.025 30.3457 208.782 30.3457H220.573C222.33 30.3457 223.754 31.7864 223.754 33.5638V38.1525C223.754 38.6651 223.344 39.0805 222.837 39.0805H206.518C206.011 39.0805 205.601 38.6651 205.601 38.1525Z" fill="black"/>
<path d="M242.259 25.7484C242.528 25.7484 242.783 25.8675 242.957 26.0743L259.199 45.436C259.75 46.0924 260.811 45.6965 260.811 44.8338V26.6763C260.811 26.1638 261.22 25.7484 261.726 25.7484H265.347C265.853 25.7484 266.263 26.1638 266.263 26.6763V53.3237C266.263 53.8361 265.853 54.2516 265.347 54.2516H260.845C260.825 54.2516 260.811 54.236 260.811 54.2169C260.811 54.2086 260.807 54.2004 260.803 54.1942L244.288 34.9674C243.73 34.3216 242.682 34.7204 242.682 35.5778V53.3237C242.682 53.8361 242.272 54.2516 241.767 54.2516H238.121C237.616 54.2516 237.206 53.8361 237.206 53.3237V26.6763C237.206 26.1638 237.616 25.7484 238.121 25.7484H242.259Z" fill="black"/>
<path fill-rule="evenodd" clip-rule="evenodd" d="M299.043 54.2516C298.533 54.2516 298.118 53.8361 298.118 53.3237V44.1461C298.118 43.6336 297.705 43.2181 297.195 43.2181H280.693C280.182 43.2181 279.769 43.6336 279.769 44.1461V53.3237C279.769 53.8361 279.355 54.2516 278.844 54.2516H275.188C274.678 54.2516 274.263 53.8361 274.263 53.3237V31.2675V31.2669L274.265 31.2661C274.265 31.2655 274.266 31.2651 274.266 31.2651C274.267 31.2651 274.269 31.264 274.269 31.2626C274.266 31.1872 274.263 31.1114 274.263 31.0353C274.263 28.1154 276.625 25.7484 279.54 25.7484C279.615 25.7484 279.691 25.75 279.766 25.7532C279.768 25.7532 279.769 25.7521 279.769 25.7508C279.769 25.7494 279.769 25.7484 279.771 25.7484H298.575C298.577 25.7484 298.578 25.7495 298.578 25.7508C298.578 25.7522 298.578 25.7534 298.58 25.7534C301.386 25.875 303.624 28.1932 303.624 31.0353C303.624 31.1114 303.622 31.1872 303.619 31.2626C303.619 31.264 303.62 31.2651 303.622 31.2651C303.622 31.2651 303.623 31.2654 303.623 31.2658C303.623 31.2662 303.624 31.2669 303.624 31.2675V53.3237C303.624 53.8361 303.21 54.2516 302.699 54.2516H299.043ZM279.769 33.5638V38.1525C279.769 38.6651 280.182 39.0805 280.693 39.0805H297.195C297.705 39.0805 298.118 38.6651 298.118 38.1525V33.5638C298.118 31.7864 296.682 30.3457 294.908 30.3457H282.98C281.206 30.3457 279.769 31.7864 279.769 33.5638Z" fill="black"/>
</g>
<defs>
<linearGradient id="paint0_linear_140_11271" x1="19.4017" y1="61.3864" x2="60.4546" y2="20.3336" gradientUnits="userSpaceOnUse">
<stop stop-color="#CB4EE8"/>
<stop offset="1" stop-color="#10F4B1"/>
</linearGradient>
<clipPath id="clip0_140_11271">
<rect width="80" height="80" fill="white"/>
</clipPath>
<clipPath id="clip1_140_11271">
<rect width="211.625" height="58.5032" fill="white" transform="translate(92 10.7484)"/>
</clipPath>
</defs>
</svg>
