<svg width="27" height="27" viewBox="0 0 27 27" fill="none" xmlns="http://www.w3.org/2000/svg">
<path d="M25.5855 11.4706L17.2801 5.51345C17.0309 5.33398 16.6811 5.39261 16.5018 5.64193L10.5507 13.9553C10.3714 14.2046 10.43 14.5548 10.6791 14.7343L18.9846 20.6915C19.2336 20.871 19.5835 20.8124 19.7628 20.5631L25.7139 12.2496C25.8931 12.0003 25.8346 11.6501 25.5855 11.4706ZM10.2946 6.41991L6.59282 5.7C6.38881 5.66089 6.19107 5.79236 6.15201 5.99655L5.43293 9.70191C5.39387 9.90611 5.52521 10.1041 5.72922 10.1432L9.43098 10.8631C9.63497 10.9022 9.83271 10.7707 9.87179 10.5665L10.5909 6.86115C10.6299 6.65696 10.4986 6.45901 10.2946 6.41991ZM6.9848 12.5634C6.93363 12.2623 6.64803 12.0572 6.34723 12.1084L0.598837 13.0589C0.298037 13.1101 0.0931523 13.396 0.144318 13.6971L1.09737 19.4511C1.14854 19.7522 1.43413 19.9573 1.73493 19.9061L7.48327 18.9523C7.78407 18.9011 7.98896 18.6152 7.93779 18.3141L6.98474 12.5601L6.9848 12.5634ZM5.95245 17.8597L2.82321 18.3771C2.52241 18.4284 2.2368 18.2232 2.18564 17.9221L1.66858 14.7898C1.61742 14.4887 1.82231 14.2029 2.12311 14.1517L5.25235 13.6342C5.55315 13.583 5.83875 13.7881 5.88992 14.0892L6.40697 17.2215C6.45814 17.5226 6.25325 17.8084 5.95245 17.8597Z" fill="white"/>
</svg>
