<svg width="1920" height="94" viewBox="0 0 1920 94" fill="none" xmlns="http://www.w3.org/2000/svg">
<path d="M0 32.0618L200.225 36.6976L258.736 39.8995L538.476 49.8714L571.489 33.496L632.248 48.4374L782.25 36.6976L925.474 30.6611L1022.97 42.7676L1092.72 39.9328L1200.72 54.1737L1226.95 32.0952L1284.69 14.2856L1356.7 39.199L1390.44 25.6584L1425.7 37.0645L1567.46 54.1404L1654.45 49.1711L1699.44 54.1404L1748.93 49.1711L1919.89 59.143V0.000137806H0V32.0952V32.0618ZM1321.74 40.6331V59.143L1270.36 93.3281H1226.5L1247.5 48.4707L1321.74 40.6331ZM1384.36 56.2749H1405.37L1409.12 60.5439L1377.63 85.4572L1366.39 73.3507L1384.36 56.2749Z" fill="black"/>
</svg>
