<svg width="1686" height="48" viewBox="0 0 1686 48" fill="none" xmlns="http://www.w3.org/2000/svg">
<g clip-path="url(#clip0_80_10723)">
<path d="M1685.85 17.0107L1665.42 4.15956C1656.54 -1.38619 1642.04 -1.38619 1633.16 4.15956L1612.73 17.0119C1603.84 22.5576 1589.35 22.5576 1580.46 17.0119L1560.07 4.15956C1551.18 -1.38619 1536.69 -1.38619 1527.8 4.15956L1507.38 17.0119C1498.49 22.5576 1484 22.5576 1475.11 17.0119L1454.68 4.15956C1445.8 -1.38619 1431.29 -1.38619 1422.42 4.15956L1401.99 17.0119C1393.1 22.5576 1378.6 22.5576 1369.72 17.0119L1349.29 4.15956C1340.44 -1.38619 1325.9 -1.38619 1317.06 4.15956L1296.63 17.0119C1287.75 22.5576 1273.24 22.5576 1264.37 17.0119L1243.94 4.15956C1235.09 -1.38619 1220.55 -1.38619 1211.66 4.15956L1191.24 17.0119C1182.36 22.5576 1167.85 22.5576 1158.97 17.0119L1138.54 4.15956C1129.66 -1.38619 1115.16 -1.38619 1106.31 4.15956L1085.89 17.0119C1077.04 22.5576 1062.5 22.5576 1053.65 17.0119L1033.23 4.15956C1024.34 -1.38619 1009.84 -1.38619 1001 4.15956L980.57 17.0119C971.725 22.5576 957.183 22.5576 948.338 17.0119L927.913 4.15956C919.029 -1.38619 904.526 -1.38619 895.641 4.15956L875.217 17.0119C866.332 22.5576 851.83 22.5576 842.946 17.0119L822.558 4.15956C813.675 -1.38619 799.172 -1.38619 790.326 4.15956L769.9 17.0119C761.017 22.5576 746.514 22.5576 737.667 17.0119L717.243 4.15956C708.358 -1.38619 693.855 -1.38619 684.972 4.15956L664.546 17.0119C655.662 22.5576 641.159 22.5576 632.276 17.0119L611.85 4.15956C602.967 -1.38619 588.464 -1.38619 579.58 4.15956L559.154 17.0119C550.271 22.5576 535.768 22.5576 526.922 17.0119L506.496 4.15956C497.612 -1.38619 483.109 -1.38619 474.226 4.15956L453.8 17.0119C444.917 22.5576 430.414 22.5576 421.53 17.0119L401.104 4.15956C392.221 -1.38619 377.718 -1.38619 368.834 4.15956L348.409 17.0119C339.525 22.5576 325.022 22.5576 316.137 17.0119L295.713 4.15956C286.828 -1.38619 272.326 -1.38619 263.442 4.15956L243.017 17.0119C234.132 22.5576 219.629 22.5576 210.746 17.0119L190.32 4.15956C181.436 -1.38619 166.933 -1.38619 158.05 4.15956L137.624 17.0119C128.741 22.5576 114.238 22.5576 105.354 17.0119L84.967 4.15956C76.0823 -1.38619 61.5805 -1.38619 52.6958 4.15956L32.27 17.0119C23.3865 22.5576 8.88351 22.5576 0 17.0119V48H1685.85V17.0107Z" fill="#FFD200"/>
</g>
<defs>
<clipPath id="clip0_80_10723">
<rect width="1685.85" height="48" fill="white"/>
</clipPath>
</defs>
</svg>
